<svg version="1.1" xmlns="http://www.w3.org/2000/svg" xmlns:xlink="http://www.w3.org/1999/xlink" width="726" height="650"><defs><clipPath id="VPyrzbXZcShF"><path fill="none" stroke="none" d=" M 0 0 L 726 0 L 726 650 L 0 650 L 0 0 Z"/></clipPath></defs><g transform="scale(1,1)" clip-path="url(#VPyrzbXZcShF)"><g><rect fill="rgb(31,36,48)" stroke="none" x="0" y="0" width="726" height="650" fill-opacity="1"/><path fill="none" stroke="rgb(55,64,86)" paint-order="fill stroke markers" d=" M 23.5 0.5 L 23.5 650.5 M 23.5 0.5 L 23.5 650.5 M 89.5 0.5 L 89.5 650.5 M 155.5 0.5 L 155.5 650.5 M 287.5 0.5 L 287.5 650.5 M 354.5 0.5 L 354.5 650.5 M 420.5 0.5 L 420.5 650.5 M 486.5 0.5 L 486.5 650.5 M 552.5 0.5 L 552.5 650.5 M 618.5 0.5 L 618.5 650.5 M 684.5 0.5 L 684.5 650.5" stroke-opacity="1" stroke-linecap="round" stroke-linejoin="round" stroke-miterlimit="10"/><path fill="none" stroke="rgb(55,64,86)" paint-order="fill stroke markers" d=" M 10.5 0.5 L 10.5 650.5 M 36.5 0.5 L 36.5 650.5 M 49.5 0.5 L 49.5 650.5 M 63.5 0.5 L 63.5 650.5 M 76.5 0.5 L 76.5 650.5 M 102.5 0.5 L 102.5 650.5 M 116.5 0.5 L 116.5 650.5 M 129.5 0.5 L 129.5 650.5 M 142.5 0.5 L 142.5 650.5 M 168.5 0.5 L 168.5 650.5 M 182.5 0.5 L 182.5 650.5 M 195.5 0.5 L 195.5 650.5 M 208.5 0.5 L 208.5 650.5 M 235.5 0.5 L 235.5 650.5 M 248.5 0.5 L 248.5 650.5 M 261.5 0.5 L 261.5 650.5 M 274.5 0.5 L 274.5 650.5 M 301.5 0.5 L 301.5 650.5 M 314.5 0.5 L 314.5 650.5 M 327.5 0.5 L 327.5 650.5 M 340.5 0.5 L 340.5 650.5 M 367.5 0.5 L 367.5 650.5 M 380.5 0.5 L 380.5 650.5 M 393.5 0.5 L 393.5 650.5 M 406.5 0.5 L 406.5 650.5 M 433.5 0.5 L 433.5 650.5 M 446.5 0.5 L 446.5 650.5 M 459.5 0.5 L 459.5 650.5 M 473.5 0.5 L 473.5 650.5 M 499.5 0.5 L 499.5 650.5 M 512.5 0.5 L 512.5 650.5 M 525.5 0.5 L 525.5 650.5 M 539.5 0.5 L 539.5 650.5 M 565.5 0.5 L 565.5 650.5 M 578.5 0.5 L 578.5 650.5 M 591.5 0.5 L 591.5 650.5 M 605.5 0.5 L 605.5 650.5 M 631.5 0.5 L 631.5 650.5 M 644.5 0.5 L 644.5 650.5 M 658.5 0.5 L 658.5 650.5 M 671.5 0.5 L 671.5 650.5 M 697.5 0.5 L 697.5 650.5 M 710.5 0.5 L 710.5 650.5 M 724.5 0.5 L 724.5 650.5" stroke-opacity="0.23529411764705882" stroke-linecap="round" stroke-linejoin="round" stroke-miterlimit="10"/><path fill="none" stroke="rgb(55,64,86)" paint-order="fill stroke markers" d=" M 0.5 48.5 L 726.5 48.5 M 0.5 48.5 L 726.5 48.5 M 0.5 114.5 L 726.5 114.5 M 0.5 180.5 L 726.5 180.5 M 0.5 246.5 L 726.5 246.5 M 0.5 312.5 L 726.5 312.5 M 0.5 379.5 L 726.5 379.5 M 0.5 445.5 L 726.5 445.5 M 0.5 577.5 L 726.5 577.5 M 0.5 643.5 L 726.5 643.5" stroke-opacity="1" stroke-linecap="round" stroke-linejoin="round" stroke-miterlimit="10"/><path fill="none" stroke="rgb(55,64,86)" paint-order="fill stroke markers" d=" M 0.5 8.5 L 726.5 8.5 M 0.5 8.5 L 726.5 8.5 M 0.5 22.5 L 726.5 22.5 M 0.5 35.5 L 726.5 35.5 M 0.5 61.5 L 726.5 61.5 M 0.5 74.5 L 726.5 74.5 M 0.5 88.5 L 726.5 88.5 M 0.5 101.5 L 726.5 101.5 M 0.5 127.5 L 726.5 127.5 M 0.5 141.5 L 726.5 141.5 M 0.5 154.5 L 726.5 154.5 M 0.5 167.5 L 726.5 167.5 M 0.5 193.5 L 726.5 193.5 M 0.5 207.5 L 726.5 207.5 M 0.5 220.5 L 726.5 220.5 M 0.5 233.5 L 726.5 233.5 M 0.5 260.5 L 726.5 260.5 M 0.5 273.5 L 726.5 273.5 M 0.5 286.5 L 726.5 286.5 M 0.5 299.5 L 726.5 299.5 M 0.5 326.5 L 726.5 326.5 M 0.5 339.5 L 726.5 339.5 M 0.5 352.5 L 726.5 352.5 M 0.5 365.5 L 726.5 365.5 M 0.5 392.5 L 726.5 392.5 M 0.5 405.5 L 726.5 405.5 M 0.5 418.5 L 726.5 418.5 M 0.5 431.5 L 726.5 431.5 M 0.5 458.5 L 726.5 458.5 M 0.5 471.5 L 726.5 471.5 M 0.5 484.5 L 726.5 484.5 M 0.5 497.5 L 726.5 497.5 M 0.5 524.5 L 726.5 524.5 M 0.5 537.5 L 726.5 537.5 M 0.5 550.5 L 726.5 550.5 M 0.5 564.5 L 726.5 564.5 M 0.5 590.5 L 726.5 590.5 M 0.5 603.5 L 726.5 603.5 M 0.5 616.5 L 726.5 616.5 M 0.5 630.5 L 726.5 630.5" stroke-opacity="0.23529411764705882" stroke-linecap="round" stroke-linejoin="round" stroke-miterlimit="10"/><path fill="none" stroke="rgb(204,202,194)" paint-order="fill stroke markers" d=" M 221.5 2.5 L 221.5 650.5" stroke-opacity="1" stroke-miterlimit="10"/><path fill="none" stroke="rgb(204,202,194)" paint-order="fill stroke markers" d=" M 221.5 1.5 L 217.5 5.5" stroke-opacity="1" stroke-miterlimit="10"/><path fill="none" stroke="rgb(204,202,194)" paint-order="fill stroke markers" d=" M 221.5 1.5 L 225.5 5.5" stroke-opacity="1" stroke-miterlimit="10"/><path fill="none" stroke="rgb(204,202,194)" paint-order="fill stroke markers" d=" M 0.5 511.5 L 724.5 511.5" stroke-opacity="1" stroke-miterlimit="10"/><path fill="none" stroke="rgb(204,202,194)" paint-order="fill stroke markers" d=" M 725.5 511.5 L 721.5 507.5" stroke-opacity="1" stroke-miterlimit="10"/><path fill="none" stroke="rgb(204,202,194)" paint-order="fill stroke markers" d=" M 725.5 511.5 L 721.5 515.5" stroke-opacity="1" stroke-miterlimit="10"/><text fill="rgb(204,202,194)" stroke="none" font-family="geogebra-sans-serif, sans-serif" font-size="12px" font-style="normal" font-weight="normal" text-decoration="normal" x="12" y="527" text-anchor="start" dominant-baseline="alphabetic" fill-opacity="1">–1.5</text><text fill="none" stroke="rgb(31,36,48)" font-family="geogebra-sans-serif, sans-serif" font-size="12px" font-style="normal" font-weight="normal" text-decoration="normal" x="12" y="527" text-anchor="start" dominant-baseline="alphabetic" stroke-opacity="1" stroke-linejoin="bevel" stroke-miterlimit="10" stroke-width="3">–1.5</text><text fill="rgb(204,202,194)" stroke="none" font-family="geogebra-sans-serif, sans-serif" font-size="12px" font-style="normal" font-weight="normal" text-decoration="normal" x="12" y="527" text-anchor="start" dominant-baseline="alphabetic" fill-opacity="1">–1.5</text><text fill="rgb(204,202,194)" stroke="none" font-family="geogebra-sans-serif, sans-serif" font-size="12px" font-style="normal" font-weight="normal" text-decoration="normal" x="84" y="527" text-anchor="start" dominant-baseline="alphabetic" fill-opacity="1">–1</text><text fill="none" stroke="rgb(31,36,48)" font-family="geogebra-sans-serif, sans-serif" font-size="12px" font-style="normal" font-weight="normal" text-decoration="normal" x="84" y="527" text-anchor="start" dominant-baseline="alphabetic" stroke-opacity="1" stroke-linejoin="bevel" stroke-miterlimit="10" stroke-width="3">–1</text><text fill="rgb(204,202,194)" stroke="none" font-family="geogebra-sans-serif, sans-serif" font-size="12px" font-style="normal" font-weight="normal" text-decoration="normal" x="84" y="527" text-anchor="start" dominant-baseline="alphabetic" fill-opacity="1">–1</text><text fill="rgb(204,202,194)" stroke="none" font-family="geogebra-sans-serif, sans-serif" font-size="12px" font-style="normal" font-weight="normal" text-decoration="normal" x="144" y="527" text-anchor="start" dominant-baseline="alphabetic" fill-opacity="1">–0.5</text><text fill="none" stroke="rgb(31,36,48)" font-family="geogebra-sans-serif, sans-serif" font-size="12px" font-style="normal" font-weight="normal" text-decoration="normal" x="144" y="527" text-anchor="start" dominant-baseline="alphabetic" stroke-opacity="1" stroke-linejoin="bevel" stroke-miterlimit="10" stroke-width="3">–0.5</text><text fill="rgb(204,202,194)" stroke="none" font-family="geogebra-sans-serif, sans-serif" font-size="12px" font-style="normal" font-weight="normal" text-decoration="normal" x="144" y="527" text-anchor="start" dominant-baseline="alphabetic" fill-opacity="1">–0.5</text><text fill="rgb(204,202,194)" stroke="none" font-family="geogebra-sans-serif, sans-serif" font-size="12px" font-style="normal" font-weight="normal" text-decoration="normal" x="279" y="527" text-anchor="start" dominant-baseline="alphabetic" fill-opacity="1">0.5</text><text fill="none" stroke="rgb(31,36,48)" font-family="geogebra-sans-serif, sans-serif" font-size="12px" font-style="normal" font-weight="normal" text-decoration="normal" x="279" y="527" text-anchor="start" dominant-baseline="alphabetic" stroke-opacity="1" stroke-linejoin="bevel" stroke-miterlimit="10" stroke-width="3">0.5</text><text fill="rgb(204,202,194)" stroke="none" font-family="geogebra-sans-serif, sans-serif" font-size="12px" font-style="normal" font-weight="normal" text-decoration="normal" x="279" y="527" text-anchor="start" dominant-baseline="alphabetic" fill-opacity="1">0.5</text><text fill="rgb(204,202,194)" stroke="none" font-family="geogebra-sans-serif, sans-serif" font-size="12px" font-style="normal" font-weight="normal" text-decoration="normal" x="352" y="527" text-anchor="start" dominant-baseline="alphabetic" fill-opacity="1">1</text><text fill="none" stroke="rgb(31,36,48)" font-family="geogebra-sans-serif, sans-serif" font-size="12px" font-style="normal" font-weight="normal" text-decoration="normal" x="352" y="527" text-anchor="start" dominant-baseline="alphabetic" stroke-opacity="1" stroke-linejoin="bevel" stroke-miterlimit="10" stroke-width="3">1</text><text fill="rgb(204,202,194)" stroke="none" font-family="geogebra-sans-serif, sans-serif" font-size="12px" font-style="normal" font-weight="normal" text-decoration="normal" x="352" y="527" text-anchor="start" dominant-baseline="alphabetic" fill-opacity="1">1</text><text fill="rgb(204,202,194)" stroke="none" font-family="geogebra-sans-serif, sans-serif" font-size="12px" font-style="normal" font-weight="normal" text-decoration="normal" x="412" y="527" text-anchor="start" dominant-baseline="alphabetic" fill-opacity="1">1.5</text><text fill="none" stroke="rgb(31,36,48)" font-family="geogebra-sans-serif, sans-serif" font-size="12px" font-style="normal" font-weight="normal" text-decoration="normal" x="412" y="527" text-anchor="start" dominant-baseline="alphabetic" stroke-opacity="1" stroke-linejoin="bevel" stroke-miterlimit="10" stroke-width="3">1.5</text><text fill="rgb(204,202,194)" stroke="none" font-family="geogebra-sans-serif, sans-serif" font-size="12px" font-style="normal" font-weight="normal" text-decoration="normal" x="412" y="527" text-anchor="start" dominant-baseline="alphabetic" fill-opacity="1">1.5</text><text fill="rgb(204,202,194)" stroke="none" font-family="geogebra-sans-serif, sans-serif" font-size="12px" font-style="normal" font-weight="normal" text-decoration="normal" x="484" y="527" text-anchor="start" dominant-baseline="alphabetic" fill-opacity="1">2</text><text fill="none" stroke="rgb(31,36,48)" font-family="geogebra-sans-serif, sans-serif" font-size="12px" font-style="normal" font-weight="normal" text-decoration="normal" x="484" y="527" text-anchor="start" dominant-baseline="alphabetic" stroke-opacity="1" stroke-linejoin="bevel" stroke-miterlimit="10" stroke-width="3">2</text><text fill="rgb(204,202,194)" stroke="none" font-family="geogebra-sans-serif, sans-serif" font-size="12px" font-style="normal" font-weight="normal" text-decoration="normal" x="484" y="527" text-anchor="start" dominant-baseline="alphabetic" fill-opacity="1">2</text><text fill="rgb(204,202,194)" stroke="none" font-family="geogebra-sans-serif, sans-serif" font-size="12px" font-style="normal" font-weight="normal" text-decoration="normal" x="544" y="527" text-anchor="start" dominant-baseline="alphabetic" fill-opacity="1">2.5</text><text fill="none" stroke="rgb(31,36,48)" font-family="geogebra-sans-serif, sans-serif" font-size="12px" font-style="normal" font-weight="normal" text-decoration="normal" x="544" y="527" text-anchor="start" dominant-baseline="alphabetic" stroke-opacity="1" stroke-linejoin="bevel" stroke-miterlimit="10" stroke-width="3">2.5</text><text fill="rgb(204,202,194)" stroke="none" font-family="geogebra-sans-serif, sans-serif" font-size="12px" font-style="normal" font-weight="normal" text-decoration="normal" x="544" y="527" text-anchor="start" dominant-baseline="alphabetic" fill-opacity="1">2.5</text><text fill="rgb(204,202,194)" stroke="none" font-family="geogebra-sans-serif, sans-serif" font-size="12px" font-style="normal" font-weight="normal" text-decoration="normal" x="616" y="527" text-anchor="start" dominant-baseline="alphabetic" fill-opacity="1">3</text><text fill="none" stroke="rgb(31,36,48)" font-family="geogebra-sans-serif, sans-serif" font-size="12px" font-style="normal" font-weight="normal" text-decoration="normal" x="616" y="527" text-anchor="start" dominant-baseline="alphabetic" stroke-opacity="1" stroke-linejoin="bevel" stroke-miterlimit="10" stroke-width="3">3</text><text fill="rgb(204,202,194)" stroke="none" font-family="geogebra-sans-serif, sans-serif" font-size="12px" font-style="normal" font-weight="normal" text-decoration="normal" x="616" y="527" text-anchor="start" dominant-baseline="alphabetic" fill-opacity="1">3</text><text fill="rgb(204,202,194)" stroke="none" font-family="geogebra-sans-serif, sans-serif" font-size="12px" font-style="normal" font-weight="normal" text-decoration="normal" x="676" y="527" text-anchor="start" dominant-baseline="alphabetic" fill-opacity="1">3.5</text><text fill="none" stroke="rgb(31,36,48)" font-family="geogebra-sans-serif, sans-serif" font-size="12px" font-style="normal" font-weight="normal" text-decoration="normal" x="676" y="527" text-anchor="start" dominant-baseline="alphabetic" stroke-opacity="1" stroke-linejoin="bevel" stroke-miterlimit="10" stroke-width="3">3.5</text><text fill="rgb(204,202,194)" stroke="none" font-family="geogebra-sans-serif, sans-serif" font-size="12px" font-style="normal" font-weight="normal" text-decoration="normal" x="676" y="527" text-anchor="start" dominant-baseline="alphabetic" fill-opacity="1">3.5</text><text fill="rgb(204,202,194)" stroke="none" font-family="geogebra-sans-serif, sans-serif" font-size="12px" font-style="normal" font-weight="normal" text-decoration="normal" x="190" y="582" text-anchor="start" dominant-baseline="alphabetic" fill-opacity="1">–0.5</text><text fill="none" stroke="rgb(31,36,48)" font-family="geogebra-sans-serif, sans-serif" font-size="12px" font-style="normal" font-weight="normal" text-decoration="normal" x="190" y="582" text-anchor="start" dominant-baseline="alphabetic" stroke-opacity="1" stroke-linejoin="bevel" stroke-miterlimit="10" stroke-width="3">–0.5</text><text fill="rgb(204,202,194)" stroke="none" font-family="geogebra-sans-serif, sans-serif" font-size="12px" font-style="normal" font-weight="normal" text-decoration="normal" x="190" y="582" text-anchor="start" dominant-baseline="alphabetic" fill-opacity="1">–0.5</text><text fill="rgb(204,202,194)" stroke="none" font-family="geogebra-sans-serif, sans-serif" font-size="12px" font-style="normal" font-weight="normal" text-decoration="normal" x="198" y="450" text-anchor="start" dominant-baseline="alphabetic" fill-opacity="1">0.5</text><text fill="none" stroke="rgb(31,36,48)" font-family="geogebra-sans-serif, sans-serif" font-size="12px" font-style="normal" font-weight="normal" text-decoration="normal" x="198" y="450" text-anchor="start" dominant-baseline="alphabetic" stroke-opacity="1" stroke-linejoin="bevel" stroke-miterlimit="10" stroke-width="3">0.5</text><text fill="rgb(204,202,194)" stroke="none" font-family="geogebra-sans-serif, sans-serif" font-size="12px" font-style="normal" font-weight="normal" text-decoration="normal" x="198" y="450" text-anchor="start" dominant-baseline="alphabetic" fill-opacity="1">0.5</text><text fill="rgb(204,202,194)" stroke="none" font-family="geogebra-sans-serif, sans-serif" font-size="12px" font-style="normal" font-weight="normal" text-decoration="normal" x="207" y="384" text-anchor="start" dominant-baseline="alphabetic" fill-opacity="1">1</text><text fill="none" stroke="rgb(31,36,48)" font-family="geogebra-sans-serif, sans-serif" font-size="12px" font-style="normal" font-weight="normal" text-decoration="normal" x="207" y="384" text-anchor="start" dominant-baseline="alphabetic" stroke-opacity="1" stroke-linejoin="bevel" stroke-miterlimit="10" stroke-width="3">1</text><text fill="rgb(204,202,194)" stroke="none" font-family="geogebra-sans-serif, sans-serif" font-size="12px" font-style="normal" font-weight="normal" text-decoration="normal" x="207" y="384" text-anchor="start" dominant-baseline="alphabetic" fill-opacity="1">1</text><text fill="rgb(204,202,194)" stroke="none" font-family="geogebra-sans-serif, sans-serif" font-size="12px" font-style="normal" font-weight="normal" text-decoration="normal" x="198" y="317" text-anchor="start" dominant-baseline="alphabetic" fill-opacity="1">1.5</text><text fill="none" stroke="rgb(31,36,48)" font-family="geogebra-sans-serif, sans-serif" font-size="12px" font-style="normal" font-weight="normal" text-decoration="normal" x="198" y="317" text-anchor="start" dominant-baseline="alphabetic" stroke-opacity="1" stroke-linejoin="bevel" stroke-miterlimit="10" stroke-width="3">1.5</text><text fill="rgb(204,202,194)" stroke="none" font-family="geogebra-sans-serif, sans-serif" font-size="12px" font-style="normal" font-weight="normal" text-decoration="normal" x="198" y="317" text-anchor="start" dominant-baseline="alphabetic" fill-opacity="1">1.5</text><text fill="rgb(204,202,194)" stroke="none" font-family="geogebra-sans-serif, sans-serif" font-size="12px" font-style="normal" font-weight="normal" text-decoration="normal" x="207" y="251" text-anchor="start" dominant-baseline="alphabetic" fill-opacity="1">2</text><text fill="none" stroke="rgb(31,36,48)" font-family="geogebra-sans-serif, sans-serif" font-size="12px" font-style="normal" font-weight="normal" text-decoration="normal" x="207" y="251" text-anchor="start" dominant-baseline="alphabetic" stroke-opacity="1" stroke-linejoin="bevel" stroke-miterlimit="10" stroke-width="3">2</text><text fill="rgb(204,202,194)" stroke="none" font-family="geogebra-sans-serif, sans-serif" font-size="12px" font-style="normal" font-weight="normal" text-decoration="normal" x="207" y="251" text-anchor="start" dominant-baseline="alphabetic" fill-opacity="1">2</text><text fill="rgb(204,202,194)" stroke="none" font-family="geogebra-sans-serif, sans-serif" font-size="12px" font-style="normal" font-weight="normal" text-decoration="normal" x="198" y="185" text-anchor="start" dominant-baseline="alphabetic" fill-opacity="1">2.5</text><text fill="none" stroke="rgb(31,36,48)" font-family="geogebra-sans-serif, sans-serif" font-size="12px" font-style="normal" font-weight="normal" text-decoration="normal" x="198" y="185" text-anchor="start" dominant-baseline="alphabetic" stroke-opacity="1" stroke-linejoin="bevel" stroke-miterlimit="10" stroke-width="3">2.5</text><text fill="rgb(204,202,194)" stroke="none" font-family="geogebra-sans-serif, sans-serif" font-size="12px" font-style="normal" font-weight="normal" text-decoration="normal" x="198" y="185" text-anchor="start" dominant-baseline="alphabetic" fill-opacity="1">2.5</text><text fill="rgb(204,202,194)" stroke="none" font-family="geogebra-sans-serif, sans-serif" font-size="12px" font-style="normal" font-weight="normal" text-decoration="normal" x="207" y="119" text-anchor="start" dominant-baseline="alphabetic" fill-opacity="1">3</text><text fill="none" stroke="rgb(31,36,48)" font-family="geogebra-sans-serif, sans-serif" font-size="12px" font-style="normal" font-weight="normal" text-decoration="normal" x="207" y="119" text-anchor="start" dominant-baseline="alphabetic" stroke-opacity="1" stroke-linejoin="bevel" stroke-miterlimit="10" stroke-width="3">3</text><text fill="rgb(204,202,194)" stroke="none" font-family="geogebra-sans-serif, sans-serif" font-size="12px" font-style="normal" font-weight="normal" text-decoration="normal" x="207" y="119" text-anchor="start" dominant-baseline="alphabetic" fill-opacity="1">3</text><text fill="rgb(204,202,194)" stroke="none" font-family="geogebra-sans-serif, sans-serif" font-size="12px" font-style="normal" font-weight="normal" text-decoration="normal" x="198" y="53" text-anchor="start" dominant-baseline="alphabetic" fill-opacity="1">3.5</text><text fill="none" stroke="rgb(31,36,48)" font-family="geogebra-sans-serif, sans-serif" font-size="12px" font-style="normal" font-weight="normal" text-decoration="normal" x="198" y="53" text-anchor="start" dominant-baseline="alphabetic" stroke-opacity="1" stroke-linejoin="bevel" stroke-miterlimit="10" stroke-width="3">3.5</text><text fill="rgb(204,202,194)" stroke="none" font-family="geogebra-sans-serif, sans-serif" font-size="12px" font-style="normal" font-weight="normal" text-decoration="normal" x="198" y="53" text-anchor="start" dominant-baseline="alphabetic" fill-opacity="1">3.5</text><text fill="rgb(204,202,194)" stroke="none" font-family="geogebra-sans-serif, sans-serif" font-size="12px" font-style="normal" font-weight="normal" text-decoration="normal" x="207" y="527" text-anchor="start" dominant-baseline="alphabetic" fill-opacity="1">0</text><text fill="none" stroke="rgb(31,36,48)" font-family="geogebra-sans-serif, sans-serif" font-size="12px" font-style="normal" font-weight="normal" text-decoration="normal" x="207" y="527" text-anchor="start" dominant-baseline="alphabetic" stroke-opacity="1" stroke-linejoin="bevel" stroke-miterlimit="10" stroke-width="3">0</text><text fill="rgb(204,202,194)" stroke="none" font-family="geogebra-sans-serif, sans-serif" font-size="12px" font-style="normal" font-weight="normal" text-decoration="normal" x="207" y="527" text-anchor="start" dominant-baseline="alphabetic" fill-opacity="1">0</text><path fill="none" stroke="rgb(255,204,102)" paint-order="fill stroke markers" d=" M 1 418.170839811164 L 1 419.0078338276087 L 1 419.0078338276087 L 2.0000000000000284 419.84104585552404 L 2.0000000000000284 419.84104585552404 L 3.0000000000000284 420.6704758949101 L 3.0000000000000284 420.67047589491006 L 3.9999999999999716 421.4961239457667 L 3.9999999999999716 421.4961239457667 L 5 422.31799000809417 L 5 422.3179900080941 L 6 423.1360740818922 L 6 423.1360740818922 L 7 423.950376167161 L 7 423.9503761671609 L 8.000000000000028 424.7608962639004 L 8.000000000000028 424.76089626390035 L 8.999999999999972 425.56763437211043 L 8.999999999999972 425.56763437211043 L 9.999999999999972 426.37059049179123 L 9.999999999999972 426.37059049179123 L 11 427.1697646229427 L 11 427.1697646229427 L 12 427.9651567655648 L 12 427.9651567655648 L 13.000000000000028 428.75676691965765 L 13.000000000000028 428.7567669196576 L 13.999999999999972 429.5445950852211 L 13.999999999999972 429.5445950852211 L 14.999999999999972 430.32864126225525 L 14.999999999999972 430.32864126225525 L 16 431.10890545076006 L 16 431.10890545076006 L 17 431.88538765073565 L 17 431.8853876507356 L 18.00000000000003 432.6580878621818 L 18.00000000000003 432.6580878621818 L 18.99999999999997 433.42700608509864 L 18.99999999999997 433.4270060850986 L 19.99999999999997 434.1921423194862 L 19.99999999999997 434.19214231948615 L 21 434.95349656534444 L 21 434.9534965653444 L 22 435.7110688226733 L 22 435.71106882267327 L 23 436.46485909147293 L 23 436.4648590914729 L 24.00000000000003 437.2148673717432 L 24.00000000000003 437.21486737174314 L 24.99999999999997 437.96109366348406 L 24.99999999999997 437.961093663484 L 26 438.70353796669565 L 26 438.70353796669565 L 27 439.44220028137795 L 27 439.44220028137795 L 28 440.1770806075309 L 28 440.1770806075309 L 29.00000000000003 440.9081789451546 L 29.00000000000003 440.90817894515453 L 29.99999999999997 441.63549529424887 L 29.99999999999997 441.6354952942488 L 30.99999999999997 442.35902965481387 L 30.99999999999997 442.35902965481387 L 32 443.0787820268496 L 32 443.0787820268495 L 33 443.7947524103559 L 33 443.79475241035584 L 34.00000000000003 444.50694080533293 L 34.00000000000003 444.5069408053329 L 35.00000000000003 445.2153472117806 L 35.00000000000003 445.2153472117806 L 35.99999999999997 445.919971629699 L 35.99999999999997 445.919971629699 L 37 446.62081405908805 L 37 446.62081405908805 L 38 447.3178744999478 L 38 447.3178744999478 L 39 448.01115295227817 L 39 448.01115295227817 L 40.00000000000003 448.7006494160793 L 40.00000000000003 448.7006494160793 L 40.99999999999997 449.38636389135104 L 40.99999999999997 449.386363891351 L 42 450.06829637809346 L 42 450.06829637809346 L 43 450.7464468763066 L 43 450.74644687630655 L 44 451.4208153859904 L 44 451.4208153859904 L 45.00000000000003 452.09140190714487 L 45.00000000000003 452.09140190714487 L 45.99999999999997 452.75820643977 L 45.99999999999997 452.75820643977 L 46.99999999999997 453.42122898386583 L 46.99999999999997 453.42122898386583 L 48 454.08046953943233 L 48 454.08046953943233 L 49 454.73592810646954 L 49 454.7359281064695 L 50.00000000000003 455.3876046849774 L 50.00000000000003 455.38760468497736 L 50.99999999999997 456.0354992749559 L 50.99999999999997 456.0354992749559 L 51.99999999999997 456.67961187640515 L 51.99999999999997 456.6796118764051 L 53 457.319942489325 L 53 457.319942489325 L 54 457.9564911137156 L 54 457.9564911137156 L 55 458.58925774957686 L 55 458.5892577495768 L 56.00000000000003 459.21824239690875 L 56.00000000000003 459.21824239690875 L 56.99999999999997 459.8434450557113 L 56.99999999999997 459.8434450557113 L 58 460.4648657259846 L 58 460.4648657259846 L 59 461.08250440772855 L 59 461.08250440772855 L 60 461.6963611009432 L 60 461.6963611009432 L 61.00000000000003 462.3064358056285 L 61.00000000000003 462.3064358056285 L 61.99999999999997 462.91272852178446 L 61.99999999999997 462.91272852178446 L 62.99999999999997 463.51523924941114 L 62.99999999999997 463.51523924941114 L 64 464.1139679885085 L 64 464.1139679885085 L 65 464.7089147390765 L 65 464.7089147390765 L 66.00000000000003 465.3000795011152 L 66.00000000000003 465.3000795011152 L 67.00000000000003 465.88746227462457 L 67.00000000000003 465.88746227462457 L 67.99999999999997 466.4710630596046 L 67.99999999999997 466.4710630596046 L 69 467.05088185605536 L 69 467.0508818560553 L 70 467.62691866397677 L 70 467.6269186639767 L 71 468.19917348336884 L 71 468.1991734833688 L 72.00000000000003 468.76764631423157 L 72.00000000000003 468.76764631423157 L 72.99999999999997 469.332337156565 L 72.99999999999997 469.33233715656496 L 74 469.8932460103691 L 74 469.89324601036907 L 75 470.4503728756439 L 75 470.4503728756439 L 76 471.0037177523894 L 76 471.0037177523894 L 77.00000000000003 471.5532806406055 L 77.00000000000003 471.5532806406055 L 77.99999999999997 472.0990615402923 L 77.99999999999997 472.09906154029227 L 78.99999999999997 472.6410604514498 L 78.99999999999997 472.6410604514498 L 80 473.17927737407797 L 80 473.17927737407797 L 81 473.71371230817687 L 81 473.7137123081768 L 82.00000000000003 474.24436525374637 L 82.00000000000003 474.24436525374637 L 82.99999999999997 474.7712362107866 L 82.99999999999997 474.7712362107865 L 83.99999999999997 475.29432517929746 L 83.99999999999997 475.2943251792974 L 85 475.813632159279 L 85 475.813632159279 L 86 476.32915715073125 L 86 476.32915715073125 L 87.00000000000003 476.84090015365416 L 87.00000000000003 476.84090015365416 L 88.00000000000003 477.3488611680478 L 88.00000000000003 477.34886116804773 L 88.99999999999997 477.853040193912 L 88.99999999999997 477.85304019391197 L 90 478.35343723124697 L 90 478.35343723124697 L 91 478.8500522800526 L 91 478.8500522800526 L 92 479.3428853403289 L 92 479.34288534032885 L 93.00000000000003 479.8319364120759 L 93.00000000000003 479.83193641207583 L 93.99999999999997 480.3172054952935 L 93.99999999999997 480.3172054952935 L 94.99999999999999 480.79869258998184 L 94.99999999999999 480.79869258998184 L 96 481.27639769614086 L 96 481.27639769614086 L 97.00000000000001 481.75032081377054 L 97.00000000000001 481.75032081377054 L 98.00000000000001 482.2204619428709 L 98.00000000000001 482.2204619428709 L 99 482.68682108344194 L 99 482.68682108344194 L 100.00000000000001 483.14939823548366 L 100.00000000000001 483.14939823548366 L 101 483.60819339899604 L 101 483.60819339899604 L 102 484.06320657397913 L 102 484.06320657397913 L 103.00000000000001 484.5144377604329 L 103.00000000000001 484.5144377604329 L 104 484.9618869583573 L 104 484.9618869583573 L 105.00000000000001 485.40555416775237 L 105.00000000000001 485.40555416775237 L 105.99999999999999 485.84543938861816 L 105.99999999999999 485.84543938861816 L 107 486.2815426209546 L 107 486.2815426209546 L 108.00000000000001 486.7138638647618 L 108.00000000000001 486.7138638647618 L 109 487.14240312003955 L 109 487.14240312003955 L 110 487.56716038678803 L 110 487.56716038678803 L 110.99999999999999 487.98813566500723 L 110.99999999999999 487.9881356650072 L 112 488.40532895469704 L 112 488.40532895469704 L 113.00000000000001 488.81874025585756 L 113.00000000000001 488.81874025585756 L 113.99999999999999 489.22836956848874 L 113.99999999999999 489.22836956848874 L 115 489.63421689259064 L 115 489.63421689259064 L 116.00000000000001 490.0362822281632 L 116.00000000000001 490.0362822281632 L 117 490.4345655752064 L 117 490.4345655752064 L 118 490.82906693372036 L 118 490.8290669337203 L 119.00000000000001 491.2197863037049 L 119.00000000000001 491.2197863037049 L 120 491.60672368516015 L 120 491.60672368516015 L 121.00000000000001 491.9898790780861 L 121.00000000000001 491.9898790780861 L 121.99999999999999 492.3692524824827 L 121.99999999999999 492.3692524824827 L 123 492.74484389835 L 123 492.74484389835 L 124.00000000000001 493.116653325688 L 124.00000000000001 493.116653325688 L 125 493.4846807644966 L 125 493.4846807644966 L 126 493.84892621477593 L 126 493.84892621477593 L 126.99999999999999 494.2093896765259 L 126.99999999999999 494.2093896765259 L 128 494.5660711497466 L 128 494.5660711497466 L 129 494.918970634438 L 129 494.918970634438 L 130 495.2680881306 L 130 495.2680881306 L 131 495.6134236382327 L 131 495.6134236382327 L 132 495.9549771573361 L 132 495.9549771573361 L 133 496.29274868791015 L 133 496.29274868791015 L 134 496.62673822995487 L 134 496.62673822995487 L 135 496.9569457834703 L 135 496.9569457834703 L 136 497.2833713484564 L 136 497.2833713484564 L 137 497.60601492491315 L 137 497.60601492491315 L 138 497.9248765128406 L 138 497.9248765128406 L 139 498.23995611223876 L 139 498.23995611223876 L 140 498.55125372310755 L 140 498.55125372310755 L 141 498.858769345447 L 141 498.858769345447 L 142 499.16250297925717 L 142 499.16250297925717 L 143 499.462454624538 L 143 499.462454624538 L 144 499.75862428128954 L 144 499.75862428128954 L 145 500.05101194951175 L 145 500.0510119495117 L 146 500.33961762920455 L 146 500.33961762920455 L 147 500.62444132036813 L 147 500.62444132036813 L 148 500.9054830230024 L 148 500.9054830230023 L 149 501.1827427371072 L 149 501.1827427371072 L 150 501.45622046268284 L 150 501.45622046268284 L 151 501.72591619972906 L 151 501.72591619972906 L 152 501.991829948246 L 152 501.991829948246 L 153 502.2539617082336 L 153 502.2539617082336 L 154 502.5123114796919 L 154 502.5123114796919 L 155 502.7668792626208 L 155 502.7668792626208 L 156 503.0176650570205 L 156 503.01766505702045 L 157 503.2646688628908 L 157 503.2646688628908 L 158 503.5078906802318 L 158 503.50789068023175 L 159 503.7473305090434 L 159 503.7473305090434 L 160 503.9829883493258 L 160 503.9829883493258 L 161 504.2148642010788 L 161 504.2148642010788 L 162 504.4429580643025 L 162 504.4429580643025 L 163 504.6672699389969 L 163 504.66726993899687 L 164 504.88779982516195 L 164 504.88779982516195 L 165 505.1045477227977 L 165 505.1045477227977 L 166 505.3175136319041 L 166 505.3175136319041 L 167.00000000000003 505.52669755248115 L 167.00000000000003 505.52669755248115 L 168 505.73209948452893 L 168 505.73209948452893 L 169 505.93371942804737 L 169 505.93371942804737 L 170 506.13155738303647 L 170 506.13155738303647 L 171 506.3256133494963 L 171 506.3256133494963 L 172 506.51588732742675 L 172 506.51588732742675 L 173 506.7023793168279 L 173 506.7023793168279 L 174 506.88508931769974 L 174 506.88508931769974 L 175 507.06401733004225 L 175 507.06401733004225 L 176 507.2391633538554 L 176 507.2391633538554 L 177 507.41052738913925 L 177 507.41052738913925 L 178 507.5781094358938 L 178 507.5781094358938 L 179 507.741909494119 L 179 507.741909494119 L 180 507.9019275638149 L 180 507.9019275638149 L 181 508.05816364498145 L 181 508.05816364498145 L 182 508.2106177376187 L 182 508.2106177376187 L 183.00000000000003 508.35928984172665 L 183.00000000000003 508.35928984172665 L 184 508.5041799573052 L 184 508.5041799573052 L 185 508.6452880843545 L 185 508.6452880843545 L 186 508.7826142228745 L 186 508.78261422287443 L 187 508.9161583728651 L 187 508.9161583728651 L 188 509.0459205343264 L 188 509.0459205343264 L 189 509.1719007072584 L 189 509.1719007072584 L 190 509.29409889166106 L 190 509.294098891661 L 191 509.41251508753436 L 191 509.41251508753436 L 192 509.52714929487837 L 192 509.52714929487837 L 193 509.6380015136931 L 193 509.6380015136931 L 194 509.74507174397843 L 194 509.74507174397843 L 195 509.8483599857345 L 195 509.8483599857345 L 196.00000000000003 509.94786623896124 L 196.00000000000003 509.94786623896124 L 197 510.0435905036586 L 197 510.0435905036586 L 198 510.1355327798267 L 198 510.1355327798267 L 199.00000000000003 510.22369306746543 L 199.00000000000003 510.22369306746543 L 200 510.3080713665749 L 200 510.3080713665749 L 201 510.388667677155 L 201 510.388667677155 L 202 510.4654819992058 L 202 510.4654819992058 L 203 510.53851433272723 L 203 510.53851433272723 L 204.00000000000003 510.6077646777194 L 204.00000000000003 510.6077646777194 L 205 510.6732330341822 L 205 510.6732330341822 L 206 510.7349194021157 L 206 510.7349194021157 L 207 510.79282378151987 L 207 510.79282378151987 L 208 510.8469461723947 L 208 510.8469461723947 L 209 510.89728657474024 L 209 510.89728657474024 L 210 510.94384498855646 L 210 510.94384498855646 L 211 510.9866214138433 L 211 510.9866214138433 L 212.00000000000003 511.0256158506009 L 212.00000000000003 511.0256158506009 L 213 511.0608282988291 L 213 511.0608282988291 L 214 511.09225875852803 L 214 511.09225875852803 L 215.00000000000003 511.1199072296976 L 215.00000000000003 511.1199072296976 L 216 511.14377371233786 L 216 511.14377371233786 L 217 511.1638582064488 L 217 511.1638582064488 L 218 511.18016071203044 L 218 511.18016071203044 L 219 511.1926812290827 L 219 511.1926812290827 L 220.00000000000003 511.2014197576057 L 220.00000000000003 511.2014197576057 L 221 511.2063762975994 L 221 511.2063762975994 L 222 511.20761870890544 L 222 511.2075508490637 L 223 511.2049434119987 L 223 511.2049434119987 L 224 511.19855398640436 L 224 511.19855398640436 L 225.00000000000003 511.1883825722808 L 225.00000000000003 511.1883825722808 L 226 511.1744291696278 L 226 511.1744291696278 L 227 511.1566937784455 L 227 511.1566937784455 L 228.00000000000003 511.1351763987339 L 228.00000000000003 511.1351763987339 L 229 511.10987703049295 L 229 511.10987703049295 L 230 511.0807956737227 L 230 511.0807956737227 L 231 511.04793232842314 L 231 511.04793232842314 L 232 511.01128699459423 L 232 511.01128699459423 L 233 510.97085967223603 L 233 510.97085967223603 L 234 510.9266503613485 L 234 510.9266503613485 L 235 510.8786590619316 L 235 510.8786590619316 L 236 510.8268857739854 L 236 510.8268857739854 L 237 510.7713304975099 L 237 510.7713304975099 L 238 510.71199323250505 L 238 510.71199323250505 L 239 510.6488739789709 L 239 510.6488739789709 L 240 510.5819727369074 L 240 510.5819727369074 L 241 510.5112895063146 L 241 510.5112895063146 L 242 510.4368242871925 L 242 510.4368242871925 L 243 510.358577079541 L 243 510.358577079541 L 244 510.27654788336025 L 244 510.27654788336025 L 245 510.19073669865014 L 245 510.19073669865014 L 246 510.10114352541075 L 246 510.10114352541075 L 247 510.007768363642 L 247 510.007768363642 L 248 509.91061121334394 L 248 509.91061121334394 L 249 509.8096720745165 L 249 509.8096720745165 L 250 509.70495094715983 L 250 509.70495094715983 L 251 509.5964478312738 L 251 509.5964478312738 L 252 509.4841627268585 L 252 509.4841627268585 L 253 509.36809563391375 L 253 509.36809563391375 L 254 509.24824655243975 L 254 509.24824655243975 L 255 509.12461548243647 L 255 509.12461548243647 L 256 508.9972024239038 L 256 508.9972024239038 L 257 508.8660073768418 L 257 508.8660073768418 L 258 508.7310303412505 L 258 508.7310303412505 L 259 508.5922713171299 L 259 508.5922713171299 L 260 508.44973030448 L 260 508.44973030448 L 261 508.30340730330073 L 261 508.30340730330073 L 262 508.1533023135921 L 262 508.1533023135921 L 263 507.99941533535423 L 263 507.99941533535423 L 264 507.841746368587 L 264 507.841746368587 L 265 507.6802954132904 L 265 507.6802954132904 L 266 507.51506246946457 L 266 507.51506246946457 L 267 507.34604753710937 L 267 507.34604753710937 L 268 507.17325061622483 L 268 507.17325061622483 L 269 506.996671706811 L 269 506.996671706811 L 270 506.81631080886785 L 270 506.81631080886785 L 271 506.63216792239535 L 271 506.63216792239535 L 272 506.4442430473935 L 272 506.4442430473935 L 273 506.2525361838624 L 273 506.2525361838624 L 274 506.0570473318019 L 274 506.0570473318019 L 275 505.8577764912122 L 275 505.8577764912122 L 276 505.65472366209303 L 276 505.65472366209303 L 277 505.4478888444446 L 277 505.4478888444446 L 278 505.2372720382669 L 278 505.2372720382669 L 279 505.0228732435598 L 279 505.0228732435598 L 280 504.8046924603234 L 280 504.8046924603234 L 281 504.5827296885577 L 281 504.5827296885577 L 282 504.35698492826265 L 282 504.35698492826265 L 283 504.1274581794383 L 283 504.1274581794383 L 284 503.8941494420846 L 284 503.8941494420846 L 285 503.6570587162016 L 285 503.6570587162016 L 286 503.41618600178924 L 286 503.41618600178924 L 287 503.1715312988476 L 287 503.1715312988476 L 288 502.92309460737664 L 288 502.92309460737664 L 289 502.6708759273763 L 289 502.6708759273763 L 290 502.4148752588467 L 290 502.4148752588467 L 291 502.15509260178777 L 291 502.15509260178777 L 292 501.89152795619947 L 292 501.89152795619947 L 293 501.6241813220819 L 293 501.6241813220819 L 294 501.35305269943495 L 294 501.35305269943495 L 295 501.07814208825874 L 295 501.07814208825874 L 296 500.7994494885532 L 296 500.7994494885532 L 297 500.5169749003183 L 297 500.5169749003183 L 298 500.2307183235541 L 298 500.2307183235541 L 299 499.94067975826056 L 299 499.94067975826056 L 300 499.6468592044377 L 300 499.6468592044377 L 301 499.3492566620855 L 301 499.3492566620855 L 302 499.04787213120403 L 302 499.04787213120403 L 303 498.7427056117932 L 303 498.7427056117932 L 304 498.43375710385305 L 304 498.43375710385305 L 305 498.1210266073836 L 305 498.1210266073836 L 306 497.80451412238483 L 306 497.80451412238483 L 307 497.4842196488567 L 307 497.4842196488567 L 308 497.16014318679925 L 308 497.16014318679925 L 309 496.8322847362125 L 309 496.8322847362125 L 310 496.5006442970964 L 310 496.5006442970964 L 311 496.165221869451 L 311 496.16522186945105 L 312 495.8260174532763 L 312 495.8260174532763 L 313 495.48303104857223 L 313 495.48303104857223 L 314 495.1362626553389 L 314 495.1362626553389 L 315 494.78571227357617 L 315 494.78571227357617 L 316 494.43137990328415 L 316 494.43137990328415 L 317 494.0732655444628 L 317 494.0732655444628 L 318 493.71136919711216 L 318 493.71136919711216 L 319 493.3456908612322 L 319 493.3456908612322 L 320 492.97623053682287 L 320 492.97623053682287 L 321 492.6029882238842 L 321 492.6029882238842 L 322 492.22596392241627 L 322 492.22596392241627 L 323 491.845157632419 L 323 491.845157632419 L 324 491.46056935389237 L 324 491.4605693538924 L 325 491.07219908683646 L 325 491.07219908683646 L 326 490.6800468312512 L 326 490.6800468312512 L 327 490.28411258713663 L 327 490.28411258713663 L 328 489.88439635449276 L 328 489.88439635449276 L 329 489.48089813331956 L 329 489.48089813331956 L 330 489.073617923617 L 330 489.073617923617 L 331 488.6625557253851 L 331 488.6625557253852 L 332 488.24771153862395 L 332 488.24771153862395 L 333 487.82908536333343 L 333 487.8290853633335 L 334 487.40667719951364 L 334 487.40667719951364 L 335 486.9804870471645 L 335 486.9804870471645 L 336 486.550514906286 L 336 486.550514906286 L 337 486.1167607768782 L 337 486.1167607768782 L 338 485.67922465894105 L 338 485.6792246589411 L 339 485.2379065524746 L 339 485.23790655247467 L 340 484.7928064574789 L 340 484.7928064574789 L 341 484.34392437395377 L 341 484.34392437395377 L 342 483.89126030189937 L 342 483.89126030189937 L 343 483.4348142413156 L 343 483.4348142413156 L 344 482.9745861922026 L 344 482.9745861922026 L 345 482.5105761545602 L 345 482.5105761545602 L 346 482.0427841283885 L 346 482.0427841283885 L 347 481.57121011368747 L 347 481.57121011368747 L 348 481.09585411045714 L 348 481.09585411045714 L 349 480.61671611869747 L 349 480.61671611869747 L 350 480.13379613840846 L 350 480.13379613840846 L 351 479.64709416959016 L 351 479.64709416959016 L 352 479.1566102122425 L 352 479.1566102122425 L 353 478.66234426636555 L 353 478.66234426636555 L 354 478.16429633195924 L 354 478.16429633195924 L 355 477.66246640902364 L 355 477.66246640902364 L 356 477.1568544975587 L 356 477.1568544975587 L 357 476.6474605975645 L 357 476.6474605975645 L 358 476.13428470904086 L 358 476.1342847090409 L 359 475.61732683198795 L 359 475.61732683198795 L 360 475.09658696640577 L 360 475.09658696640577 L 361 474.5720651122942 L 361 474.57206511229424 L 362 474.0437612696533 L 362 474.0437612696534 L 363 473.51167543848317 L 363 473.51167543848317 L 364 472.9758076187836 L 364 472.9758076187836 L 365 472.4361578105548 L 365 472.4361578105548 L 366 471.8927260137966 L 366 471.8927260137966 L 367 471.34551222850916 L 367 471.34551222850916 L 368 470.79451645469237 L 368 470.79451645469237 L 369 470.23973869234624 L 369 470.23973869234624 L 370 469.68117894147076 L 370 469.68117894147076 L 371 469.118837202066 L 371 469.118837202066 L 372 468.5527134741319 L 372 468.5527134741319 L 373 467.98280775766847 L 373 467.9828077576685 L 374 467.40912005267575 L 374 467.40912005267575 L 375 466.8316503591536 L 375 466.8316503591537 L 376 466.2503986771023 L 376 466.2503986771023 L 377 465.66536500652154 L 377 465.6653650065216 L 378 465.0765493474115 L 378 465.07654934741157 L 379 464.4839516997722 L 379 464.4839516997722 L 380 463.8875720636035 L 380 463.8875720636035 L 381 463.2874104389055 L 381 463.2874104389055 L 382 462.6834668256782 L 382 462.6834668256782 L 383 462.0757412239215 L 383 462.07574122392157 L 384 461.46423363363556 L 384 461.46423363363556 L 385 460.84894405482027 L 385 460.84894405482027 L 386 460.22987248747563 L 386 460.22987248747563 L 387 459.6070189316017 L 387 459.6070189316017 L 388 458.98038338719846 L 388 458.98038338719846 L 389 458.34996585426586 L 389 458.34996585426586 L 390 457.7157663328039 L 390 457.7157663328039 L 391 457.0777848228127 L 391 457.0777848228127 L 392 456.43602132429214 L 392 456.4360213242922 L 393 455.7904758372423 L 393 455.7904758372423 L 394 455.1411483616631 L 394 455.1411483616631 L 395 454.48803889755453 L 395 454.4880388975546 L 396 453.8311474449167 L 396 453.8311474449167 L 397 453.1704740037496 L 397 453.1704740037496 L 398 452.50601857405303 L 398 452.5060185740531 L 399 451.83778115582726 L 399 451.83778115582726 L 400 451.1657617490721 L 400 451.16576174907215 L 401 450.48996035378764 L 401 450.48996035378764 L 402 449.81037696997385 L 402 449.81037696997385 L 403 449.12701159763077 L 403 449.12701159763077 L 404 448.43986423675835 L 404 448.43986423675835 L 405 447.7489348873566 L 405 447.7489348873566 L 406 447.0542235494255 L 406 447.0542235494255 L 407 446.3557302229651 L 407 446.3557302229651 L 408 445.6534549079754 L 408 445.6534549079754 L 409 444.94739760445634 L 409 444.94739760445634 L 410 444.237558312408 L 410 444.237558312408 L 411 443.5239370318303 L 411 443.5239370318303 L 412 442.80653376272323 L 412 442.8065337627233 L 413 442.0853485050869 L 413 442.085348505087 L 414 441.3603812589213 L 414 441.3603812589213 L 415 440.6316320242263 L 415 440.63163202422635 L 416 439.899100801002 L 416 439.899100801002 L 417 439.1627875892484 L 417 439.1627875892484 L 418 438.4226923889654 L 418 438.42269238896546 L 419 437.67881520015317 L 419 437.67881520015317 L 420 436.9311560228116 L 420 436.9311560228116 L 421 436.1797148569407 L 421 436.1797148569407 L 422 435.4244917025404 L 422 435.4244917025404 L 423 434.6654865596108 L 423 434.6654865596109 L 424 433.902699428152 L 424 433.902699428152 L 425 433.13613030816373 L 425 433.1361303081638 L 426 432.3657791996462 L 426 432.3657791996463 L 427 431.5916461025994 L 427 431.5916461025994 L 428 430.8137310170232 L 428 430.8137310170232 L 429 430.0320339429177 L 429 430.03203394291774 L 430 429.2465548802829 L 430 429.24655488028293 L 431 428.4572938291187 L 431 428.4572938291188 L 432 427.6642507894253 L 432 427.6642507894253 L 433 426.86742576120247 L 433 426.8674257612025 L 434 426.06681874445036 L 434 426.06681874445036 L 435 425.2624297391689 L 435 425.26242973916897 L 436 424.4542587453582 L 436 424.45425874535823 L 437 423.6423057630181 L 437 423.6423057630181 L 438 422.8265707921487 L 438 422.8265707921487 L 439 422.00705383274993 L 439 422.00705383275 L 440 421.1837548848219 L 440 421.18375488482195 L 441 420.3566739483645 L 441 420.3566739483646 L 442 419.52581102337786 L 442 419.52581102337786 L 443 418.6911661098618 L 443 418.69116610986185 L 444 417.85273920781646 L 444 417.8527392078165 L 445 417.01053031724183 L 445 417.01053031724183 L 446 416.1645394381378 L 446 416.1645394381378 L 447 415.3147665705045 L 447 415.31476657050456 L 448 414.46121171434186 L 448 414.4612117143419 L 449 413.6038748696499 L 449 413.6038748696499 L 450 412.74275603642866 L 450 412.74275603642866 L 451 411.87785521467805 L 451 411.8778552146781 L 452 411.0091724043981 L 452 411.00917240439816 L 453 410.13670760558887 L 453 410.1367076055889 L 454 409.2604608182503 L 454 409.26046081825035 L 455 408.3804320423824 L 455 408.38043204238244 L 456 407.4966212779852 L 456 407.49662127798524 L 457 406.60902852505865 L 457 406.60902852505865 L 458 405.7176537836028 L 458 405.7176537836028 L 459 404.8224970536176 L 459 404.82249705361767 L 460 403.9235583351031 L 460 403.9235583351031 L 461 403.02083762805927 L 461 403.0208376280593 L 462 402.11433493248614 L 462 402.11433493248614 L 463 401.2040502483836 L 463 401.2040502483837 L 464 400.2899835757519 L 464 400.2899835757519 L 465 399.37213491459073 L 465 399.37213491459073 L 466 398.45050426490025 L 466 398.4505042649003 L 467 397.5250916266805 L 467 397.52509162668053 L 468 396.5958969999314 L 468 396.5958969999315 L 469 395.66292038465303 L 469 395.66292038465303 L 470 394.72616178084525 L 470 394.7261617808453 L 471 393.78562118850823 L 471 393.78562118850823 L 472 392.8412986076418 L 472 392.8412986076419 L 473 391.8931940382461 L 473 391.8931940382462 L 474 390.94130748032114 L 474 390.94130748032114 L 475 389.98563893386677 L 475 389.98563893386677 L 476 389.02618839888305 L 476 389.0261883988831 L 477 388.0629558753701 L 477 388.0629558753701 L 478 387.09594136332777 L 478 387.0959413633278 L 479 386.12514486275614 L 479 386.1251448627562 L 480 385.1505663736552 L 480 385.1505663736552 L 481 384.1722058960249 L 481 384.17220589602493 L 482 383.19006342986523 L 482 383.1900634298653 L 483 382.2041389751763 L 483 382.20413897517636 L 484 381.2144325319581 L 484 381.2144325319581 L 485 380.22094410021055 L 485 380.22094410021055 L 486 379.2236736799336 L 486 379.22367367993365 L 487 378.22262127112737 L 487 378.2226212711274 L 488 377.21778687379185 L 488 377.2177868737919 L 489 376.20917048792694 L 489 376.20917048792705 L 490 375.1967721135328 L 490 375.1967721135328 L 491 374.1805917506092 L 491 374.1805917506093 L 492 373.1606293991564 L 492 373.16062939915645 L 493 372.13688505917423 L 493 372.13688505917423 L 494 371.10935873066273 L 494 371.1093587306628 L 495 370.07805041362195 L 495 370.078050413622 L 496 369.04296010805183 L 496 369.0429601080519 L 497 368.00408781395237 L 497 368.0040878139524 L 498 366.9614335313237 L 498 366.9614335313237 L 499 365.9149972601655 L 499 365.9149972601656 L 500 364.8647790004781 L 500 364.86477900047817 L 501 363.81077875226134 L 501 363.8107787522614 L 502 362.7529965155153 L 502 362.7529965155153 L 503 361.69143229023985 L 503 361.69143229023996 L 504 360.6260860764352 L 504 360.6260860764352 L 505.0000000000001 359.5569578741011 L 505.0000000000001 359.55695787410116 L 506 358.4840476832378 L 506 358.48404768323786 L 507 357.4073555038451 L 507 357.40735550384517 L 508 356.3268813359231 L 508 356.32688133592313 L 509 355.2426251794718 L 509 355.2426251794718 L 510 354.1545870344911 L 510 354.1545870344912 L 511 353.06276690098116 L 511 353.0627669009812 L 512 351.9671647789419 L 512 351.9671647789419 L 513 350.86778066837326 L 513 350.86778066837326 L 514 349.7646145692753 L 514 349.7646145692753 L 515 348.657666481648 L 515 348.65766648164805 L 516.0000000000001 347.5469364054914 L 516.0000000000001 347.54693640549146 L 517 346.43242434080554 L 517 346.4324243408056 L 518 345.3141302875903 L 518 345.3141302875904 L 519 344.1920542458457 L 519 344.1920542458458 L 520 343.0661962155719 L 520 343.06619621557195 L 521 341.9365561967687 L 521 341.9365561967687 L 522 340.80313418943615 L 522 340.8031341894362 L 523 339.6659301935743 L 523 339.66593019357435 L 524 338.5249442091831 L 524 338.52494420918316 L 525 337.3801762362626 L 525 337.3801762362626 L 526 336.2316262748128 L 526 336.2316262748128 L 527 335.0792943248337 L 527 335.07929432483377 L 528 333.92318038632527 L 528 333.92318038632527 L 529 332.76328445928743 L 529 332.7632844592875 L 530 331.59960654372037 L 530 331.5996065437204 L 531 330.43214663962397 L 531 330.43214663962397 L 532 329.2609047469982 L 532 329.2609047469982 L 533 328.0858808658431 L 533 328.08588086584314 L 534 326.90707499615866 L 534 326.9070749961587 L 535 325.72448713794495 L 535 325.72448713794495 L 536 324.5381172912019 L 536 324.53811729120196 L 537.0000000000001 323.3479654559295 L 537.0000000000001 323.34796545592957 L 538 322.15403163212784 L 538 322.15403163212795 L 539 320.9563158197968 L 539 320.95631581979694 L 540 319.7548180189365 L 540 319.7548180189366 L 541 318.5495382295469 L 541 318.549538229547 L 542 317.3404764516279 L 542 317.340476451628 L 543 316.1276326851796 L 543 316.12763268517966 L 544 314.911006930202 L 544 314.911006930202 L 545 313.690599186695 L 545 313.69059918669507 L 546 312.4664094546587 L 546 312.4664094546588 L 547 311.23843773409305 L 547 311.23843773409317 L 548.0000000000001 310.00668402499815 L 548.0000000000001 310.0066840249982 L 549 308.771148327374 L 549 308.771148327374 L 550 307.5318306412204 L 550 307.5318306412205 L 551 306.2887309665375 L 551 306.28873096653757 L 552 305.04184930332536 L 552 305.0418493033254 L 553 303.7911856515838 L 553 303.7911856515839 L 554 302.536740011313 L 554 302.536740011313 L 555 301.27851238251276 L 555 301.2785123825128 L 556 300.01650276518325 L 556 300.0165027651833 L 557 298.7507111593244 L 557 298.7507111593245 L 558.0000000000001 297.48113756493626 L 558.0000000000001 297.4811375649363 L 559 296.20778198201884 L 559 296.2077819820189 L 560 294.93064441057203 L 560 294.9306444105721 L 561 293.64972485059593 L 561 293.64972485059593 L 562 292.36502330209055 L 562 292.36502330209055 L 563 291.07653976505577 L 563 291.0765397650558 L 564 289.78427423949165 L 564 289.78427423949177 L 565 288.48822672539825 L 565 288.4882267253983 L 566 287.1883972227755 L 566 287.18839722277556 L 567 285.8847857316234 L 567 285.8847857316235 L 568 284.577392251942 L 568 284.5773922519421 L 569.0000000000001 283.26621678373135 L 569.0000000000001 283.2662167837314 L 570 281.95125932699136 L 570 281.9512593269914 L 571 280.63251988172203 L 571 280.63251988172203 L 572 279.30999844792336 L 572 279.30999844792336 L 573 277.98369502559547 L 573 277.98369502559547 L 574 276.6536096147381 L 574 276.6536096147382 L 575 275.3197422153514 L 575 275.31974221535154 L 576 273.98209282743545 L 576 273.9820928274355 L 577 272.64066145099014 L 577 272.64066145099025 L 578 271.29544808601554 L 578 271.2954480860156 L 579 269.9464527325116 L 579 269.9464527325117 L 580.0000000000001 268.5936753904783 L 580.0000000000001 268.59367539047844 L 581 267.2371160599158 L 581 267.23711605991593 L 582 265.8767747408239 L 582 265.876774740824 L 583 264.5126514332027 L 583 264.5126514332028 L 584 263.14474613705227 L 584 263.14474613705227 L 585 261.7730588523724 L 585 261.7730588523724 L 586 260.39758957916314 L 586 260.3975895791632 L 587 259.01833831742465 L 587 259.01833831742465 L 588 257.63530506715676 L 588 257.6353050671569 L 589 256.24848982835965 L 589 256.24848982835965 L 590.0000000000001 254.85789260103314 L 590.0000000000001 254.8578926010332 L 591 253.4635133851774 L 591 253.46351338517746 L 592 252.06535218079227 L 592 252.06535218079233 L 593 250.6634089878778 L 593 250.66340898787786 L 594 249.2576838064341 L 594 249.25768380643416 L 595 247.848176636461 L 595 247.84817663646106 L 596 246.4348874779585 L 596 246.43488747795863 L 597 245.0178163309268 L 597 245.0178163309269 L 598 243.59696319536567 L 598 243.5969631953658 L 599 242.17232807127527 L 599 242.1723280712754 L 600 240.7439109586556 L 600 240.7439109586557 L 601.0000000000001 239.3117118575065 L 601.0000000000001 239.31171185750662 L 602 237.87573076782826 L 602 237.87573076782837 L 603 236.43596768962055 L 603 236.43596768962067 L 604 234.99242262288357 L 604 234.99242262288368 L 605 233.54509556761735 L 605 233.54509556761747 L 606 232.09398652382168 L 606 232.0939865238218 L 607 230.63909549149668 L 607 230.6390954914968 L 608 229.18042247064238 L 608 229.1804224706425 L 609 227.7179674612587 L 609 227.7179674612588 L 610 226.25173046334578 L 610 226.2517304633459 L 611 224.78171147690352 L 611 224.78171147690364 L 612.0000000000001 223.30791050193187 L 612.0000000000001 223.30791050193204 L 613 221.8303275384311 L 613 221.83032753843122 L 614 220.3489625864009 L 614 220.348962586401 L 615 218.86381564584127 L 615 218.86381564584138 L 616 217.37488671675254 L 616 217.37488671675266 L 617 215.88217579913425 L 617 215.88217579913436 L 618 214.38568289298672 L 618 214.38568289298684 L 619 212.88540799830992 L 619 212.88540799831003 L 620 211.3813511151037 L 620 211.38135111510383 L 621 209.87351224336817 L 621 209.87351224336828 L 622.0000000000001 208.3618913831034 L 622.0000000000001 208.3618913831035 L 623 206.8464885343093 L 623 206.8464885343094 L 624 205.32730369698584 L 624 205.32730369698595 L 625 203.80433687113305 L 625 203.80433687113316 L 626 202.27758805675103 L 626 202.27758805675114 L 627 200.7470572538396 L 627 200.74705725383973 L 628 199.2127444623988 L 628 199.21274446239897 L 629 197.67464968242876 L 629 197.67464968242888 L 630 196.1327729139294 L 630 196.1327729139295 L 631 194.5871141569006 L 631 194.58711415690072 L 632 193.03767341134255 L 632 193.03767341134267 L 633 191.48445067725532 L 633 191.48445067725544 L 634 189.92744595463859 L 634 189.9274459546387 L 635 188.36665924349256 L 635 188.36665924349268 L 636 186.80209054381726 L 636 186.80209054381737 L 637 185.23373985561255 L 637 185.23373985561267 L 638 183.66160717887863 L 638 183.6616071788788 L 639 182.0856925136153 L 639 182.08569251361547 L 640 180.50599585982275 L 640 180.50599585982286 L 641 178.92251721750074 L 641 178.92251721750085 L 642 177.3352565866495 L 642 177.33525658664962 L 643.0000000000001 175.74421396726888 L 643.0000000000001 175.744213967269 L 644 174.14938935935902 L 644 174.14938935935913 L 645 172.55078276291977 L 645 172.55078276291988 L 646 170.94839417795117 L 646 170.9483941779513 L 647 169.3422236044533 L 647 169.3422236044534 L 648 167.73227104242608 L 648 167.7322710424262 L 649 166.11853649186963 L 649 166.1185364918698 L 650 164.50101995278374 L 650 164.50101995278385 L 651 162.87972142516855 L 651 162.87972142516867 L 652 161.2546409090241 L 652 161.2546409090242 L 653 159.62577840435023 L 653 159.62577840435034 L 654 157.9931339111472 L 654 157.9931339111473 L 655 156.3567074294147 L 655 156.35670742941483 L 656 154.7164989591529 L 656 154.716498959153 L 657 153.07250850036178 L 657 153.0725085003619 L 658 151.42473605304133 L 658 151.42473605304144 L 659 149.77318161719165 L 659 149.77318161719177 L 660 148.11784519281252 L 660 148.11784519281264 L 661 146.45872677990417 L 661 146.45872677990428 L 662 144.79582637846642 L 662 144.79582637846653 L 663 143.12914398849932 L 663 143.12914398849944 L 664 141.45867961000295 L 664 141.45867961000306 L 665 139.78443324297734 L 665 139.78443324297746 L 666 138.1064048874223 L 666 138.1064048874224 L 667 136.424594543338 L 667 136.42459454333812 L 668 134.73900221072427 L 668 134.73900221072438 L 669 133.0496278895813 L 669 133.04962788958142 L 670 131.35647157990905 L 670 131.35647157990917 L 671 129.6595332817074 L 671 129.65953328170752 L 672 127.95881299497648 L 672 127.9588129949766 L 673 126.25431071971616 L 673 126.25431071971627 L 674 124.54602645592655 L 674 124.54602645592666 L 675.0000000000001 122.8339602036076 L 675.0000000000001 122.83396020360772 L 676 121.11811196275943 L 676 121.11811196275954 L 677 119.39848173338186 L 677 119.39848173338197 L 678 117.67506951547495 L 678 117.67506951547506 L 679 115.94787530903875 L 679 115.94787530903886 L 680 114.21689911407321 L 680 114.21689911407333 L 681 112.4821409305784 L 681 112.48214093057851 L 682 110.74360075855424 L 682 110.74360075855435 L 683 109.00127859800074 L 683 109.00127859800085 L 684 107.25517444891784 L 684 107.25517444891796 L 685 105.50528831130572 L 685 105.50528831130583 L 686 103.75162018516431 L 686 103.75162018516443 L 687 101.99417007049351 L 687 101.99417007049362 L 688 100.23293796729331 L 688 100.23293796729342 L 689 98.46792387556388 L 689 98.467923875564 L 690 96.69912779530512 L 690 96.69912779530523 L 691 94.92654972651712 L 691 94.92654972651724 L 692 93.15018966919968 L 692 93.15018966919979 L 693 91.37004762335295 L 693 91.37004762335306 L 694 89.58612358897687 L 694 89.58612358897699 L 695 87.79841756607146 L 695 87.79841756607158 L 696 86.00692955463677 L 696 86.00692955463688 L 697 84.21165955467285 L 697 84.21165955467296 L 698 82.41260756617947 L 698 82.41260756617959 L 699 80.60977358915676 L 699 80.60977358915693 L 700 78.80315762360476 L 700 78.80315762360487 L 701 76.99275966952348 L 701 76.9927596695236 L 702 75.17857972691286 L 702 75.17857972691297 L 703 73.3606177957729 L 703 73.36061779577301 L 704 71.5388738761036 L 704 71.53887387610371 L 705 69.71334796790501 L 705 69.71334796790512 L 706 67.88404007117703 L 706 67.88404007117714 L 707.0000000000001 66.05095018591982 L 707.0000000000001 66.05095018591993 L 708 64.21407831213327 L 708 64.21407831213338 L 709 62.37342444981738 L 709 62.37342444981749 L 710 60.52898859897209 L 710 60.528988598972205 L 711 58.68077075959752 L 711 58.680770759597635 L 712.0000000000001 56.828770931693725 L 712.0000000000001 56.82877093169384 L 713 54.97298911526059 L 713 54.9729891152607 L 714 53.113425310298055 L 714 53.11342531029817 L 715 51.25007951680624 L 715 51.25007951680635 L 716 49.38295173478508 L 716 49.382951734785195 L 717 47.51204196423453 L 717 47.51204196423464 L 718 45.6373502051548 L 718 45.63735020515492 L 719 43.75887645754568 L 719 43.758876457545796 L 720 41.87662072140722 L 720 41.876620721407335 L 721 39.99058299673942 L 721 39.99058299673953 L 722 38.100763283542335 L 722 38.10076328354245 L 723 36.207161581816024 L 723 36.20716158181614 L 724 34.30977789156026 L 724 34.30977789156037 L 725 32.408612212775154 L 725 32.40861221277527 L 726 30.503664545460765" stroke-opacity="0.6980392156862745" stroke-linecap="round" stroke-linejoin="round" stroke-miterlimit="10" stroke-width="2.5"/><path fill="none" stroke="rgb(255,204,102)" paint-order="fill stroke markers" d=" M 89.60498110501001 655 L 89.60498110501001 -5" stroke-opacity="0.6980392156862745" stroke-linejoin="round" stroke-miterlimit="10" stroke-width="2.5" stroke-dasharray="10.5,8"/><path fill="none" stroke="rgb(255,204,102)" paint-order="fill stroke markers" d=" M 618.4273147777405 655 L 618.4273147777405 -5" stroke-opacity="0.6980392156862745" stroke-linejoin="round" stroke-miterlimit="10" stroke-width="2.5" stroke-dasharray="10.5,8"/><path fill="none" stroke="rgb(97,97,97)" paint-order="fill stroke markers" d=" M 354.01614794137527 655 L 354.01614794137527 -5" stroke-opacity="0.8" stroke-linecap="round" stroke-linejoin="round" stroke-miterlimit="10" stroke-width="2.5"/><path fill="none" stroke="rgb(153,255,255)" paint-order="fill stroke markers" d=" M 89.60498110501001 478.1562228543597 L 618.4273147777405 213.74505601799405" stroke-opacity="0.4" stroke-linejoin="round" stroke-miterlimit="10" stroke-width="3" stroke-dasharray="11,4,3,4"/><path fill="rgb(255,204,102)" stroke="none" paint-order="stroke fill markers" d=" M 93.60498110501001 478.1562228543597 C 93.60498110501001 480.3653618536829 91.81412010433318 482.1562228543597 89.60498110501001 482.1562228543597 C 87.39584210568684 482.1562228543597 85.60498110501001 480.3653618536829 85.60498110501001 478.1562228543597 C 85.60498110501001 475.94708385503657 87.39584210568684 474.1562228543597 89.60498110501001 474.1562228543597 C 91.81412010433318 474.1562228543597 93.60498110501001 475.94708385503657 93.60498110501001 478.1562228543597 Z" fill-opacity="1"/><path fill="rgb(255,204,102)" stroke="none" paint-order="stroke fill markers" d=" M 622.4273147777405 213.74505601799405 C 622.4273147777405 215.9541950173172 620.6364537770637 217.74505601799405 618.4273147777405 217.74505601799405 C 616.2181757784174 217.74505601799405 614.4273147777405 215.9541950173172 614.4273147777405 213.74505601799405 C 614.4273147777405 211.53591701867086 616.2181757784174 209.74505601799405 618.4273147777405 209.74505601799405 C 620.6364537770637 209.74505601799405 622.4273147777405 211.53591701867086 622.4273147777405 213.74505601799405 Z" fill-opacity="1"/><path fill="rgb(153,255,255)" stroke="none" paint-order="stroke fill markers" d=" M 359.01614794137527 345.95063943617686 C 359.01614794137527 348.7120631853308 356.7775716905292 350.95063943617686 354.01614794137527 350.95063943617686 C 351.2547241922213 350.95063943617686 349.01614794137527 348.7120631853308 349.01614794137527 345.95063943617686 C 349.01614794137527 343.1892156870229 351.2547241922213 340.95063943617686 354.01614794137527 340.95063943617686 C 356.7775716905292 340.95063943617686 359.01614794137527 343.1892156870229 359.01614794137527 345.95063943617686 Z" fill-opacity="1"/><path fill="rgb(255,204,102)" stroke="none" paint-order="stroke fill markers" d=" M 358.01614794137527 478.1562228543597 C 358.01614794137527 480.3653618536829 356.2252869406984 482.1562228543597 354.01614794137527 482.1562228543597 C 351.8070089420521 482.1562228543597 350.01614794137527 480.3653618536829 350.01614794137527 478.1562228543597 C 350.01614794137527 475.94708385503657 351.8070089420521 474.1562228543597 354.01614794137527 474.1562228543597 C 356.2252869406984 474.1562228543597 358.01614794137527 475.94708385503657 358.01614794137527 478.1562228543597 Z" fill-opacity="1"/><g transform="scale(19,19)"><g transform="translate(4.526315789473684,23.90356842105263) scale(1.4,1.4)"><g transform="translate(0.333,0)"><path fill="rgb(255,204,102)" stroke="none" paint-order="stroke fill markers" d=" M 0.179 -0.115 L 0.527 -0.6990000000000001 Q 0.537 -0.715 0.553 -0.716 Q 0.5680000000000001 -0.716 0.5700000000000001 -0.706 Q 0.5710000000000001 -0.7030000000000001 0.5720000000000001 -0.6920000000000001 L 0.633 -0.067 Q 0.636 -0.042 0.645 -0.037 L 0.646 -0.037 L 0.646 -0.037 L 0.646 -0.037 L 0.646 -0.037 L 0.646 -0.036000000000000004 Q 0.658 -0.031 0.6980000000000001 -0.031 Q 0.72 -0.031 0.721 -0.02 Q 0.721 0 0.7030000000000001 0 L 0.591 -0.003 L 0.59 -0.003 L 0.466 0 L 0.465 0 Q 0.451 0 0.451 -0.011 Q 0.459 -0.03 0.47500000000000003 -0.031 Q 0.547 -0.031 0.547 -0.064 Q 0.547 -0.063 0.531 -0.231 L 0.28 -0.231 L 0.20400000000000001 -0.10300000000000001 Q 0.19 -0.078 0.19 -0.066 Q 0.19 -0.035 0.23700000000000002 -0.031 Q 0.253 -0.031 0.253 -0.019 Q 0.253 0 0.234 0 L 0.138 -0.003 L 0.134 -0.003 L 0.05 0 L 0.048 0 Q 0.035 0 0.035 -0.011 Q 0.035 -0.029 0.05 -0.03 L 0.05 -0.031 L 0.056 -0.031 Q 0.11900000000000001 -0.035 0.159 -0.085 Q 0.169 -0.098 0.179 -0.115 M 0.299 -0.262 L 0.528 -0.262 L 0.496 -0.592 L 0.299 -0.262 Z"/></g></g></g><g transform="scale(19,19)"><g transform="translate(30.736842105263158,10.903568421052633) scale(1.4,1.4)"><g transform="translate(0,0)"><path fill="rgb(255,204,102)" stroke="none" paint-order="stroke fill markers" d=" M 0.16 -0.078 L 0.294 -0.615 Q 0.298 -0.631 0.298 -0.634 Q 0.298 -0.646 0.28200000000000003 -0.649 L 0.281 -0.649 L 0.28 -0.649 Q 0.277 -0.649 0.271 -0.65 Q 0.254 -0.652 0.233 -0.652 Q 0.20700000000000002 -0.652 0.20500000000000002 -0.663 Q 0.20500000000000002 -0.681 0.22 -0.683 L 0.221 -0.683 L 0.222 -0.683 L 0.234 -0.683 L 0.5700000000000001 -0.683 Q 0.685 -0.683 0.734 -0.615 Q 0.756 -0.583 0.756 -0.545 Q 0.756 -0.464 0.666 -0.404 Q 0.665 -0.404 0.664 -0.403 Q 0.611 -0.369 0.547 -0.357 Q 0.649 -0.34500000000000003 0.687 -0.277 Q 0.7020000000000001 -0.249 0.7020000000000001 -0.216 Q 0.7020000000000001 -0.14300000000000002 0.632 -0.079 L 0.631 -0.078 Q 0.545 0 0.426 0 L 0.069 0 Q 0.044 0 0.042 -0.011 Q 0.042 -0.029 0.057 -0.031 L 0.069 -0.031 Q 0.134 -0.031 0.147 -0.045 Q 0.153 -0.052000000000000005 0.159 -0.073 Q 0.159 -0.074 0.16 -0.078 M 0.311 -0.366 L 0.457 -0.366 Q 0.556 -0.366 0.62 -0.438 Q 0.665 -0.489 0.665 -0.549 Q 0.665 -0.622 0.605 -0.644 Q 0.584 -0.652 0.556 -0.652 L 0.427 -0.652 Q 0.391 -0.652 0.383 -0.642 L 0.383 -0.642 L 0.383 -0.641 L 0.382 -0.641 L 0.382 -0.64 Q 0.378 -0.634 0.373 -0.614 L 0.311 -0.366 M 0.266 -0.031 L 0.402 -0.031 Q 0.498 -0.031 0.561 -0.10300000000000001 Q 0.609 -0.159 0.609 -0.227 Q 0.609 -0.3 0.557 -0.33 Q 0.531 -0.34400000000000003 0.494 -0.34400000000000003 L 0.305 -0.34400000000000003 L 0.23600000000000002 -0.065 Q 0.231 -0.047 0.231 -0.042 Q 0.231 -0.034 0.24 -0.032 L 0.24 -0.032 L 0.24 -0.032 L 0.244 -0.032 Q 0.25 -0.031 0.266 -0.031 Z"/></g></g></g><g transform="scale(19,19)"><g transform="translate(18.94736842105263,26.482515789473684) scale(1.4,1.4)"><g transform="translate(0,0)"><path fill="rgb(255,204,102)" stroke="none" paint-order="stroke fill markers" d=" M 0.926 -0.606 L 0.793 -0.073 Q 0.788 -0.055 0.788 -0.049 Q 0.788 -0.032 0.835 -0.031 L 0.836 -0.031 L 0.853 -0.031 Q 0.879 -0.031 0.881 -0.02 Q 0.881 0 0.862 0 L 0.738 -0.003 L 0.737 -0.003 L 0.614 0 L 0.613 0 Q 0.598 0 0.598 -0.012 Q 0.598 -0.029 0.614 -0.031 L 0.626 -0.031 Q 0.6910000000000001 -0.031 0.704 -0.045 Q 0.71 -0.052000000000000005 0.716 -0.073 Q 0.716 -0.074 0.717 -0.078 L 0.86 -0.651 L 0.859 -0.651 L 0.455 -0.018000000000000002 Q 0.443 -0.001 0.433 0 Q 0.422 0 0.418 -0.023 L 0.332 -0.643 L 0.331 -0.643 L 0.195 -0.098 Q 0.191 -0.083 0.191 -0.075 Q 0.191 -0.038 0.23900000000000002 -0.032 Q 0.248 -0.031 0.259 -0.031 Q 0.277 -0.031 0.277 -0.02 Q 0.277 0 0.259 0 L 0.159 -0.003 L 0.156 -0.003 L 0.057 0 L 0.056 0 Q 0.042 0 0.042 -0.012 Q 0.042 -0.031 0.06 -0.031 Q 0.139 -0.034 0.16 -0.081 Q 0.164 -0.091 0.168 -0.106 L 0.295 -0.615 Q 0.299 -0.631 0.299 -0.634 Q 0.299 -0.646 0.28300000000000003 -0.649 L 0.28200000000000003 -0.649 L 0.28200000000000003 -0.649 Q 0.28 -0.65 0.277 -0.65 Q 0.253 -0.652 0.234 -0.652 Q 0.20800000000000002 -0.652 0.20600000000000002 -0.66 Q 0.20500000000000002 -0.662 0.20500000000000002 -0.664 Q 0.20500000000000002 -0.681 0.222 -0.683 L 0.222 -0.683 L 0.23500000000000001 -0.683 L 0.372 -0.683 Q 0.395 -0.683 0.399 -0.678 L 0.399 -0.677 Q 0.401 -0.673 0.403 -0.66 L 0.481 -0.094 L 0.846 -0.664 Q 0.857 -0.681 0.866 -0.682 Q 0.87 -0.683 0.885 -0.683 L 1.0170000000000001 -0.683 Q 1.042 -0.683 1.044 -0.672 Q 1.044 -0.655 1.03 -0.653 Q 1.025 -0.652 1.012 -0.652 Q 0.9490000000000001 -0.652 0.937 -0.636 L 0.936 -0.635 L 0.936 -0.634 Q 0.931 -0.627 0.926 -0.606 Z"/></g></g></g><g transform="scale(19,19)"><g transform="translate(16.68421052631579,17.90356842105263) scale(1.4,1.4)"><g transform="translate(0,0)"><path fill="rgb(153,255,255)" stroke="none" paint-order="stroke fill markers" d=" M 0.76 -0.6950000000000001 L 0.6970000000000001 -0.44 Q 0.6920000000000001 -0.422 0.687 -0.421 L 0.686 -0.42 L 0.679 -0.42 Q 0.664 -0.42 0.664 -0.43 L 0.667 -0.47900000000000004 L 0.667 -0.481 Q 0.667 -0.605 0.589 -0.652 L 0.588 -0.653 Q 0.553 -0.674 0.506 -0.674 Q 0.4 -0.674 0.305 -0.595 Q 0.281 -0.5760000000000001 0.262 -0.553 Q 0.167 -0.442 0.145 -0.271 Q 0.14100000000000001 -0.24 0.14100000000000001 -0.217 Q 0.14100000000000001 -0.077 0.247 -0.028 Q 0.28800000000000003 -0.009000000000000001 0.337 -0.009000000000000001 Q 0.431 -0.009000000000000001 0.521 -0.082 Q 0.591 -0.14100000000000001 0.622 -0.24 Q 0.624 -0.25 0.635 -0.25 Q 0.647 -0.25 0.647 -0.24 Q 0.647 -0.222 0.624 -0.176 Q 0.593 -0.113 0.537 -0.064 Q 0.438 0.022 0.321 0.022 Q 0.193 0.022 0.116 -0.066 Q 0.05 -0.14100000000000001 0.05 -0.252 Q 0.05 -0.401 0.159 -0.531 Q 0.26 -0.652 0.398 -0.6910000000000001 Q 0.449 -0.705 0.498 -0.705 Q 0.607 -0.705 0.664 -0.616 L 0.734 -0.6930000000000001 Q 0.746 -0.705 0.749 -0.705 Q 0.76 -0.705 0.76 -0.6950000000000001 Z"/></g></g></g></g></g></svg>