<svg version="1.1" xmlns="http://www.w3.org/2000/svg" xmlns:xlink="http://www.w3.org/1999/xlink" width="738" height="602"><defs><clipPath id="KlgtmrXxOhDu"><path fill="none" stroke="none" d=" M 0 0 L 738 0 L 738 602 L 0 602 L 0 0 Z"/></clipPath></defs><g transform="scale(1,1)" clip-path="url(#KlgtmrXxOhDu)"><g><rect fill="rgb(31,36,48)" stroke="none" x="0" y="0" width="738" height="602" fill-opacity="1"/><path fill="none" stroke="rgb(55,64,86)" paint-order="fill stroke markers" d=" M -11.5 0.5 L -11.5 602.5 M -11.5 0.5 L -11.5 602.5 M 50.5 0.5 L 50.5 602.5 M 113.5 0.5 L 113.5 602.5 M 175.5 0.5 L 175.5 602.5 M 237.5 0.5 L 237.5 602.5 M 299.5 0.5 L 299.5 602.5 M 361.5 0.5 L 361.5 602.5 M 423.5 0.5 L 423.5 602.5 M 485.5 0.5 L 485.5 602.5 M 547.5 0.5 L 547.5 602.5 M 609.5 0.5 L 609.5 602.5 M 671.5 0.5 L 671.5 602.5 M 733.5 0.5 L 733.5 602.5" stroke-opacity="1" stroke-linecap="round" stroke-linejoin="round" stroke-miterlimit="10"/><path fill="none" stroke="rgb(55,64,86)" paint-order="fill stroke markers" d=" M 1.5 0.5 L 1.5 602.5 M 13.5 0.5 L 13.5 602.5 M 26.5 0.5 L 26.5 602.5 M 38.5 0.5 L 38.5 602.5 M 63.5 0.5 L 63.5 602.5 M 75.5 0.5 L 75.5 602.5 M 88.5 0.5 L 88.5 602.5 M 100.5 0.5 L 100.5 602.5 M 125.5 0.5 L 125.5 602.5 M 137.5 0.5 L 137.5 602.5 M 150.5 0.5 L 150.5 602.5 M 162.5 0.5 L 162.5 602.5 M 187.5 0.5 L 187.5 602.5 M 199.5 0.5 L 199.5 602.5 M 212.5 0.5 L 212.5 602.5 M 224.5 0.5 L 224.5 602.5 M 249.5 0.5 L 249.5 602.5 M 261.5 0.5 L 261.5 602.5 M 274.5 0.5 L 274.5 602.5 M 286.5 0.5 L 286.5 602.5 M 311.5 0.5 L 311.5 602.5 M 323.5 0.5 L 323.5 602.5 M 336.5 0.5 L 336.5 602.5 M 348.5 0.5 L 348.5 602.5 M 373.5 0.5 L 373.5 602.5 M 385.5 0.5 L 385.5 602.5 M 398.5 0.5 L 398.5 602.5 M 410.5 0.5 L 410.5 602.5 M 435.5 0.5 L 435.5 602.5 M 448.5 0.5 L 448.5 602.5 M 460.5 0.5 L 460.5 602.5 M 472.5 0.5 L 472.5 602.5 M 497.5 0.5 L 497.5 602.5 M 510.5 0.5 L 510.5 602.5 M 522.5 0.5 L 522.5 602.5 M 534.5 0.5 L 534.5 602.5 M 559.5 0.5 L 559.5 602.5 M 572.5 0.5 L 572.5 602.5 M 584.5 0.5 L 584.5 602.5 M 596.5 0.5 L 596.5 602.5 M 621.5 0.5 L 621.5 602.5 M 634.5 0.5 L 634.5 602.5 M 646.5 0.5 L 646.5 602.5 M 658.5 0.5 L 658.5 602.5 M 683.5 0.5 L 683.5 602.5 M 696.5 0.5 L 696.5 602.5 M 708.5 0.5 L 708.5 602.5 M 720.5 0.5 L 720.5 602.5" stroke-opacity="0.23529411764705882" stroke-linecap="round" stroke-linejoin="round" stroke-miterlimit="10"/><path fill="none" stroke="rgb(55,64,86)" paint-order="fill stroke markers" d=" M 0.5 24.5 L 738.5 24.5 M 0.5 24.5 L 738.5 24.5 M 0.5 86.5 L 738.5 86.5 M 0.5 148.5 L 738.5 148.5 M 0.5 210.5 L 738.5 210.5 M 0.5 272.5 L 738.5 272.5 M 0.5 334.5 L 738.5 334.5 M 0.5 396.5 L 738.5 396.5 M 0.5 459.5 L 738.5 459.5 M 0.5 521.5 L 738.5 521.5 M 0.5 583.5 L 738.5 583.5" stroke-opacity="1" stroke-linecap="round" stroke-linejoin="round" stroke-miterlimit="10"/><path fill="none" stroke="rgb(55,64,86)" paint-order="fill stroke markers" d=" M 0.5 12.5 L 738.5 12.5 M 0.5 12.5 L 738.5 12.5 M 0.5 37.5 L 738.5 37.5 M 0.5 49.5 L 738.5 49.5 M 0.5 61.5 L 738.5 61.5 M 0.5 74.5 L 738.5 74.5 M 0.5 99.5 L 738.5 99.5 M 0.5 111.5 L 738.5 111.5 M 0.5 124.5 L 738.5 124.5 M 0.5 136.5 L 738.5 136.5 M 0.5 161.5 L 738.5 161.5 M 0.5 173.5 L 738.5 173.5 M 0.5 186.5 L 738.5 186.5 M 0.5 198.5 L 738.5 198.5 M 0.5 223.5 L 738.5 223.5 M 0.5 235.5 L 738.5 235.5 M 0.5 248.5 L 738.5 248.5 M 0.5 260.5 L 738.5 260.5 M 0.5 285.5 L 738.5 285.5 M 0.5 297.5 L 738.5 297.5 M 0.5 310.5 L 738.5 310.5 M 0.5 322.5 L 738.5 322.5 M 0.5 347.5 L 738.5 347.5 M 0.5 359.5 L 738.5 359.5 M 0.5 372.5 L 738.5 372.5 M 0.5 384.5 L 738.5 384.5 M 0.5 409.5 L 738.5 409.5 M 0.5 421.5 L 738.5 421.5 M 0.5 434.5 L 738.5 434.5 M 0.5 446.5 L 738.5 446.5 M 0.5 471.5 L 738.5 471.5 M 0.5 483.5 L 738.5 483.5 M 0.5 496.5 L 738.5 496.5 M 0.5 508.5 L 738.5 508.5 M 0.5 533.5 L 738.5 533.5 M 0.5 545.5 L 738.5 545.5 M 0.5 558.5 L 738.5 558.5 M 0.5 570.5 L 738.5 570.5 M 0.5 595.5 L 738.5 595.5" stroke-opacity="0.23529411764705882" stroke-linecap="round" stroke-linejoin="round" stroke-miterlimit="10"/><path fill="rgb(255,204,102)" stroke="none" paint-order="stroke fill markers" fill-rule="evenodd" d=" M 362.86175807663653 99.35386927122556 L 142.72652141247337 504.31254695717575 L 638.5942900075166 364.5679939894824 Z" fill-opacity="0.09803921568627451"/><path fill="none" stroke="rgb(255,204,102)" paint-order="fill stroke markers" d=" M 362.86175807663653 99.35386927122556 L 142.72652141247337 504.31254695717575" stroke-opacity="0.8" stroke-linecap="round" stroke-linejoin="round" stroke-miterlimit="10" stroke-width="2.5"/><path fill="none" stroke="rgb(255,204,102)" paint-order="fill stroke markers" d=" M 142.72652141247337 504.31254695717575 L 638.5942900075166 364.5679939894824" stroke-opacity="0.8" stroke-linecap="round" stroke-linejoin="round" stroke-miterlimit="10" stroke-width="2.5"/><path fill="none" stroke="rgb(255,204,102)" paint-order="fill stroke markers" d=" M 638.5942900075166 364.5679939894824 L 362.86175807663653 99.35386927122556" stroke-opacity="0.8" stroke-linecap="round" stroke-linejoin="round" stroke-miterlimit="10" stroke-width="2.5"/><g transform="scale(35,35)"><g transform="translate(15,5.831)"><path fill="rgb(255,204,102)" stroke="none" paint-order="stroke fill markers" d=" M 0.396 -0.38 L 0.396 -0.38 Q 0.368 -0.41600000000000004 0.31 -0.42 Q 0.245 -0.42 0.192 -0.354 Q 0.179 -0.338 0.169 -0.32 Q 0.129 -0.247 0.117 -0.148 Q 0.115 -0.132 0.115 -0.12 Q 0.115 -0.038 0.171 -0.017 Q 0.185 -0.011 0.20500000000000002 -0.011 Q 0.295 -0.011 0.367 -0.07100000000000001 Q 0.388 -0.088 0.405 -0.11 Q 0.41200000000000003 -0.12 0.418 -0.12 Q 0.427 -0.12 0.43 -0.107 Q 0.43 -0.096 0.396 -0.064 Q 0.313 0.011 0.203 0.011 Q 0.108 0.011 0.065 -0.065 Q 0.041 -0.106 0.041 -0.158 Q 0.041 -0.26 0.11900000000000001 -0.34700000000000003 Q 0.196 -0.433 0.291 -0.441 Q 0.3 -0.442 0.309 -0.442 Q 0.386 -0.442 0.41600000000000004 -0.395 Q 0.427 -0.377 0.427 -0.356 Q 0.427 -0.312 0.392 -0.296 Q 0.382 -0.292 0.371 -0.292 Q 0.341 -0.292 0.335 -0.318 Q 0.334 -0.322 0.334 -0.327 Q 0.334 -0.34900000000000003 0.352 -0.366 Q 0.366 -0.38 0.396 -0.38 Z" fill-opacity="1"/></g></g><g transform="scale(35,35)"><g transform="translate(5.0285714285714285,8.294)"><path fill="rgb(255,204,102)" stroke="none" paint-order="stroke fill markers" d=" M 0.23900000000000002 -0.683 L 0.165 -0.382 Q 0.223 -0.442 0.28200000000000003 -0.442 Q 0.357 -0.442 0.394 -0.373 Q 0.41500000000000004 -0.333 0.41500000000000004 -0.28200000000000003 Q 0.41500000000000004 -0.176 0.341 -0.084 Q 0.272 0.001 0.189 0.01 Q 0.181 0.011 0.17400000000000002 0.011 Q 0.10200000000000001 0.011 0.067 -0.056 Q 0.047 -0.094 0.047 -0.146 Q 0.047 -0.18 0.063 -0.247 L 0.145 -0.5730000000000001 Q 0.159 -0.632 0.159 -0.635 Q 0.159 -0.646 0.145 -0.649 L 0.145 -0.649 Q 0.133 -0.652 0.109 -0.652 Q 0.08700000000000001 -0.652 0.085 -0.664 Q 0.085 -0.681 0.10400000000000001 -0.684 L 0.226 -0.6940000000000001 Q 0.23900000000000002 -0.6940000000000001 0.23900000000000002 -0.683 M 0.145 -0.305 L 0.123 -0.213 Q 0.107 -0.15 0.107 -0.112 Q 0.107 -0.026000000000000002 0.159 -0.013000000000000001 Q 0.166 -0.011 0.17400000000000002 -0.011 Q 0.227 -0.011 0.273 -0.081 Q 0.28300000000000003 -0.096 0.292 -0.114 Q 0.319 -0.171 0.337 -0.268 Q 0.343 -0.303 0.343 -0.326 Q 0.343 -0.406 0.294 -0.418 L 0.293 -0.419 Q 0.28700000000000003 -0.42 0.28 -0.42 Q 0.22 -0.42 0.16 -0.34 Q 0.152 -0.33 0.145 -0.305 Z" fill-opacity="1"/></g></g><g transform="scale(35,35)"><g transform="translate(11.742857142857142,14.40242857142857)"><path fill="rgb(255,204,102)" stroke="none" paint-order="stroke fill markers" d=" M 0.373 -0.378 Q 0.378 -0.41200000000000003 0.404 -0.42 Q 0.40900000000000003 -0.422 0.41500000000000004 -0.422 Q 0.441 -0.422 0.444 -0.395 Q 0.444 -0.389 0.437 -0.361 L 0.401 -0.221 Q 0.386 -0.158 0.379 -0.131 Q 0.366 -0.079 0.366 -0.057 Q 0.366 -0.011 0.396 -0.011 Q 0.434 -0.011 0.46 -0.091 Q 0.465 -0.108 0.47200000000000003 -0.135 Q 0.48 -0.152 0.486 -0.153 Q 0.498 -0.153 0.498 -0.14300000000000002 Q 0.498 -0.128 0.48 -0.073 Q 0.47400000000000003 -0.056 0.468 -0.044 Q 0.44 0.011 0.394 0.011 Q 0.338 0.011 0.313 -0.037 Q 0.306 -0.049 0.303 -0.064 Q 0.24 0.011 0.17300000000000001 0.011 Q 0.098 0.011 0.062 -0.057 Q 0.04 -0.097 0.04 -0.149 Q 0.04 -0.257 0.115 -0.34900000000000003 Q 0.185 -0.433 0.267 -0.441 Q 0.274 -0.442 0.281 -0.442 Q 0.342 -0.442 0.373 -0.378 M 0.308 -0.11900000000000001 L 0.308 -0.11900000000000001 L 0.358 -0.315 Q 0.361 -0.33 0.361 -0.332 Q 0.361 -0.353 0.343 -0.383 Q 0.321 -0.42 0.28200000000000003 -0.42 Q 0.23 -0.42 0.183 -0.352 Q 0.17400000000000002 -0.339 0.166 -0.324 Q 0.137 -0.266 0.117 -0.159 Q 0.111 -0.125 0.111 -0.105 Q 0.111 -0.037 0.149 -0.017 Q 0.16 -0.011 0.17500000000000002 -0.011 Q 0.231 -0.011 0.28800000000000003 -0.082 Q 0.302 -0.098 0.307 -0.115 L 0.307 -0.116 Q 0.308 -0.11800000000000001 0.308 -0.11900000000000001 Z" fill-opacity="1"/></g></g><g transform="scale(35,35)"><g transform="translate(10.057142857142857,2.568714285714286)"><path fill="rgb(255,204,102)" stroke="none" paint-order="stroke fill markers" d=" M 0.179 -0.115 L 0.527 -0.6990000000000001 Q 0.537 -0.715 0.553 -0.716 Q 0.5680000000000001 -0.716 0.5700000000000001 -0.706 Q 0.5710000000000001 -0.7030000000000001 0.5720000000000001 -0.6920000000000001 L 0.633 -0.067 Q 0.636 -0.042 0.645 -0.037 L 0.646 -0.037 L 0.646 -0.037 L 0.646 -0.037 L 0.646 -0.037 L 0.646 -0.036000000000000004 Q 0.658 -0.031 0.6980000000000001 -0.031 Q 0.72 -0.031 0.721 -0.02 Q 0.721 0 0.7030000000000001 0 L 0.591 -0.003 L 0.59 -0.003 L 0.466 0 L 0.465 0 Q 0.451 0 0.451 -0.011 Q 0.459 -0.03 0.47500000000000003 -0.031 Q 0.547 -0.031 0.547 -0.064 Q 0.547 -0.063 0.531 -0.231 L 0.28 -0.231 L 0.20400000000000001 -0.10300000000000001 Q 0.19 -0.078 0.19 -0.066 Q 0.19 -0.035 0.23700000000000002 -0.031 Q 0.253 -0.031 0.253 -0.019 Q 0.253 0 0.234 0 L 0.138 -0.003 L 0.134 -0.003 L 0.05 0 L 0.048 0 Q 0.035 0 0.035 -0.011 Q 0.035 -0.029 0.05 -0.03 L 0.05 -0.031 L 0.056 -0.031 Q 0.11900000000000001 -0.035 0.159 -0.085 Q 0.169 -0.098 0.179 -0.115 M 0.299 -0.262 L 0.528 -0.262 L 0.496 -0.592 L 0.299 -0.262 Z" fill-opacity="1"/></g></g><g transform="scale(35,35)"><g transform="translate(18.571428571428573,10.968714285714286)"><path fill="rgb(255,204,102)" stroke="none" paint-order="stroke fill markers" d=" M 0.16 -0.078 L 0.294 -0.615 Q 0.298 -0.631 0.298 -0.634 Q 0.298 -0.646 0.28200000000000003 -0.649 L 0.281 -0.649 L 0.28 -0.649 Q 0.277 -0.649 0.271 -0.65 Q 0.254 -0.652 0.233 -0.652 Q 0.20700000000000002 -0.652 0.20500000000000002 -0.663 Q 0.20500000000000002 -0.681 0.22 -0.683 L 0.221 -0.683 L 0.222 -0.683 L 0.234 -0.683 L 0.5700000000000001 -0.683 Q 0.685 -0.683 0.734 -0.615 Q 0.756 -0.583 0.756 -0.545 Q 0.756 -0.464 0.666 -0.404 Q 0.665 -0.404 0.664 -0.403 Q 0.611 -0.369 0.547 -0.357 Q 0.649 -0.34500000000000003 0.687 -0.277 Q 0.7020000000000001 -0.249 0.7020000000000001 -0.216 Q 0.7020000000000001 -0.14300000000000002 0.632 -0.079 L 0.631 -0.078 Q 0.545 0 0.426 0 L 0.069 0 Q 0.044 0 0.042 -0.011 Q 0.042 -0.029 0.057 -0.031 L 0.069 -0.031 Q 0.134 -0.031 0.147 -0.045 Q 0.153 -0.052000000000000005 0.159 -0.073 Q 0.159 -0.074 0.16 -0.078 M 0.311 -0.366 L 0.457 -0.366 Q 0.556 -0.366 0.62 -0.438 Q 0.665 -0.489 0.665 -0.549 Q 0.665 -0.622 0.605 -0.644 Q 0.584 -0.652 0.556 -0.652 L 0.427 -0.652 Q 0.391 -0.652 0.383 -0.642 L 0.383 -0.642 L 0.383 -0.641 L 0.382 -0.641 L 0.382 -0.64 Q 0.378 -0.634 0.373 -0.614 L 0.311 -0.366 M 0.266 -0.031 L 0.402 -0.031 Q 0.498 -0.031 0.561 -0.10300000000000001 Q 0.609 -0.159 0.609 -0.227 Q 0.609 -0.3 0.557 -0.33 Q 0.531 -0.34400000000000003 0.494 -0.34400000000000003 L 0.305 -0.34400000000000003 L 0.23600000000000002 -0.065 Q 0.231 -0.047 0.231 -0.042 Q 0.231 -0.034 0.24 -0.032 L 0.24 -0.032 L 0.24 -0.032 L 0.244 -0.032 Q 0.25 -0.031 0.266 -0.031 Z" fill-opacity="1"/></g></g><g transform="scale(35,35)"><g transform="translate(3.2285714285714286,15.368714285714285)"><path fill="rgb(255,204,102)" stroke="none" paint-order="stroke fill markers" d=" M 0.76 -0.6950000000000001 L 0.6970000000000001 -0.44 Q 0.6920000000000001 -0.422 0.687 -0.421 L 0.686 -0.42 L 0.679 -0.42 Q 0.664 -0.42 0.664 -0.43 L 0.667 -0.47900000000000004 L 0.667 -0.481 Q 0.667 -0.605 0.589 -0.652 L 0.588 -0.653 Q 0.553 -0.674 0.506 -0.674 Q 0.4 -0.674 0.305 -0.595 Q 0.281 -0.5760000000000001 0.262 -0.553 Q 0.167 -0.442 0.145 -0.271 Q 0.14100000000000001 -0.24 0.14100000000000001 -0.217 Q 0.14100000000000001 -0.077 0.247 -0.028 Q 0.28800000000000003 -0.009000000000000001 0.337 -0.009000000000000001 Q 0.431 -0.009000000000000001 0.521 -0.082 Q 0.591 -0.14100000000000001 0.622 -0.24 Q 0.624 -0.25 0.635 -0.25 Q 0.647 -0.25 0.647 -0.24 Q 0.647 -0.222 0.624 -0.176 Q 0.593 -0.113 0.537 -0.064 Q 0.438 0.022 0.321 0.022 Q 0.193 0.022 0.116 -0.066 Q 0.05 -0.14100000000000001 0.05 -0.252 Q 0.05 -0.401 0.159 -0.531 Q 0.26 -0.652 0.398 -0.6910000000000001 Q 0.449 -0.705 0.498 -0.705 Q 0.607 -0.705 0.664 -0.616 L 0.734 -0.6930000000000001 Q 0.746 -0.705 0.749 -0.705 Q 0.76 -0.705 0.76 -0.6950000000000001 Z" fill-opacity="1"/></g></g></g></g></svg>